<svg width="512" height="512" viewBox="0 0 512 512" fill="none" xmlns="http://www.w3.org/2000/svg">
<path d="M256 242C264.291 242 271 235.291 271 227V75C271 66.709 264.291 60 256 60C247.709 60 241 66.709 241 75V227C241 235.291 247.709 242 256 242ZM106 467H406V257H106V467ZM76 302H15C6.709 302 0 308.709 0 317V407C0 415.291 6.709 422 15 422H76C84.291 422 91 415.291 91 407V317C91 308.709 84.291 302 76 302ZM497 302H436C427.709 302 421 308.709 421 317V407C421 415.291 427.709 422 436 422H497C505.291 422 512 415.291 512 407V317C512 308.709 505.291 302 497 302Z" fill="#D3A3FF"/>
<path d="M376 212H136C94.6 212 61 245.6 61 287V437C61 478.4 94.6 512 136 512H376C417.4 512 451 478.4 451 437V287C451 245.6 417.4 212 376 212ZM391 407C391 415.399 384.401 422 376 422H292.301L266.5 447.499C263.8 450.5 259.9 452 256 452C252.1 452 248.2 450.5 245.501 447.499L219.699 422H136C127.599 422 121 415.399 121 407V287C121 278.599 127.599 272 136 272H376C384.401 272 391 278.599 391 287V407ZM196 332C187.716 332 181 338.716 181 347C181 355.284 187.716 362 196 362C204.284 362 211 355.284 211 347C211 338.716 204.284 332 196 332ZM256 332C247.716 332 241 338.716 241 347C241 355.284 247.716 362 256 362C264.284 362 271 355.284 271 347C271 338.716 264.284 332 256 332ZM316 332C307.716 332 301 338.716 301 347C301 355.284 307.716 362 316 362C324.284 362 331 355.284 331 347C331 338.716 324.284 332 316 332ZM256 90C280.814 90 301 69.814 301 45C301 20.186 280.814 0 256 0C231.186 0 211 20.186 211 45C211 69.814 231.186 90 256 90Z" fill="#AE61F5"/>
</svg>
