<svg width="63" height="63" viewBox="0 0 63 63" fill="none" xmlns="http://www.w3.org/2000/svg">
<circle cx="31.5" cy="31.5" r="31.5" fill="url(#paint0_linear)"/>
<path d="M40.0123 39.04V43H24.1423V39.85L32.2423 32.2C33.1023 31.38 33.6823 30.68 33.9823 30.1C34.2823 29.5 34.4323 28.91 34.4323 28.33C34.4323 27.49 34.1423 26.85 33.5623 26.41C33.0023 25.95 32.1723 25.72 31.0723 25.72C30.1523 25.72 29.3223 25.9 28.5823 26.26C27.8423 26.6 27.2223 27.12 26.7223 27.82L23.1823 25.54C24.0023 24.32 25.1323 23.37 26.5723 22.69C28.0123 21.99 29.6623 21.64 31.5223 21.64C33.0823 21.64 34.4423 21.9 35.6023 22.42C36.7823 22.92 37.6923 23.64 38.3323 24.58C38.9923 25.5 39.3223 26.59 39.3223 27.85C39.3223 28.99 39.0823 30.06 38.6023 31.06C38.1223 32.06 37.1923 33.2 35.8123 34.48L30.9823 39.04H40.0123Z" fill="white"/>
<defs>
<linearGradient id="paint0_linear" x1="-1.76863e-07" y1="32" x2="74" y2="32" gradientUnits="userSpaceOnUse">
<stop stop-color="#9C4FCF"/>
<stop offset="1" stop-color="#68A8E6"/>
</linearGradient>
</defs>
</svg>
