<svg width="63" height="63" viewBox="0 0 63 63" fill="none" xmlns="http://www.w3.org/2000/svg">
<circle cx="31.5" cy="31.5" r="31.5" fill="url(#paint0_linear)"/>
<path d="M30.4491 27.89C33.4091 27.89 35.5891 28.48 36.9891 29.66C38.4091 30.84 39.1191 32.42 39.1191 34.4C39.1191 35.68 38.7991 36.85 38.1591 37.91C37.5191 38.95 36.5391 39.79 35.2191 40.43C33.9191 41.05 32.3091 41.36 30.3891 41.36C28.9091 41.36 27.4491 41.17 26.0091 40.79C24.5891 40.39 23.3791 39.83 22.3791 39.11L24.2991 35.39C25.0991 35.99 26.0191 36.46 27.0591 36.8C28.0991 37.12 29.1691 37.28 30.2691 37.28C31.4891 37.28 32.4491 37.04 33.1491 36.56C33.8491 36.08 34.1991 35.41 34.1991 34.55C34.1991 33.65 33.8291 32.97 33.0891 32.51C32.3691 32.05 31.1091 31.82 29.3091 31.82H23.9391L25.0191 20H37.8291V23.9H29.0691L28.7391 27.89H30.4491Z" fill="white"/>
<defs>
<linearGradient id="paint0_linear" x1="-1.76863e-07" y1="32" x2="74" y2="32" gradientUnits="userSpaceOnUse">
<stop stop-color="#9C4FCF"/>
<stop offset="1" stop-color="#68A8E6"/>
</linearGradient>
</defs>
</svg>
