<svg width="63" height="63" viewBox="0 0 63 63" fill="none" xmlns="http://www.w3.org/2000/svg">
<circle cx="31.5" cy="31.5" r="31.5" fill="url(#paint0_linear)"/>
<path d="M34.103 30.55C35.943 30.85 37.353 31.54 38.333 32.62C39.313 33.68 39.803 35 39.803 36.58C39.803 37.8 39.483 38.93 38.843 39.97C38.203 40.99 37.223 41.81 35.903 42.43C34.603 43.05 33.003 43.36 31.103 43.36C29.623 43.36 28.163 43.17 26.723 42.79C25.303 42.39 24.093 41.83 23.093 41.11L24.983 37.39C25.783 37.99 26.703 38.46 27.743 38.8C28.803 39.12 29.883 39.28 30.983 39.28C32.203 39.28 33.163 39.05 33.863 38.59C34.563 38.11 34.913 37.44 34.913 36.58C34.913 34.86 33.603 34 30.983 34H28.763V30.79L33.083 25.9H24.143V22H38.843V25.15L34.103 30.55Z" fill="white"/>
<defs>
<linearGradient id="paint0_linear" x1="-1.76863e-07" y1="32" x2="74" y2="32" gradientUnits="userSpaceOnUse">
<stop stop-color="#9C4FCF"/>
<stop offset="1" stop-color="#68A8E6"/>
</linearGradient>
</defs>
</svg>
