<?xml version="1.0" standalone="no"?>
<!DOCTYPE svg PUBLIC "-//W3C//DTD SVG 20010904//EN"
 "http://www.w3.org/TR/2001/REC-SVG-20010904/DTD/svg10.dtd">
<svg version="1.0" xmlns="http://www.w3.org/2000/svg"
 width="512.000000pt" height="512.000000pt" viewBox="0 0 512.000000 512.000000"
 preserveAspectRatio="xMidYMid meet">

<g transform="translate(0.000000,512.000000) scale(0.100000,-0.100000)"
fill="#ffffff" stroke="none">
<path d="M2396 5109 c-577 -80 -1028 -525 -1117 -1101 -17 -114 -6 -370 21
-478 47 -191 115 -334 229 -485 381 -505 1059 -659 1622 -368 348 179 589 492
674 873 25 113 31 344 11 468 -86 542 -494 969 -1031 1078 -90 18 -320 26
-409 13z m362 -685 c193 -64 343 -214 403 -404 27 -82 36 -238 20 -322 -7 -35
-33 -105 -58 -157 -151 -314 -532 -440 -849 -281 -146 74 -258 199 -311 350
-35 99 -43 264 -19 360 65 254 257 434 514 480 79 15 214 3 300 -26z"/>
<path d="M1245 2528 c-94 -35 -173 -124 -206 -231 -25 -80 -21 -126 16 -202
56 -116 296 -299 526 -401 179 -79 454 -152 647 -170 39 -4 72 -9 72 -11 0 -3
-219 -227 -487 -499 -381 -386 -495 -506 -518 -551 -104 -197 66 -457 300
-458 122 0 124 2 554 431 211 211 391 385 400 385 9 1 23 1 31 -1 8 -1 188
-174 400 -385 405 -404 418 -415 522 -430 121 -18 272 74 335 204 21 44 27 70
27 126 -1 125 8 115 -541 666 -271 273 -493 501 -493 507 0 7 11 12 24 12 37
0 262 39 351 61 257 64 460 157 650 300 110 82 186 159 216 219 66 127 -10
327 -151 404 -67 36 -154 45 -231 23 -30 -9 -106 -49 -169 -88 -219 -138 -421
-219 -642 -259 -435 -79 -867 6 -1253 245 -60 37 -130 77 -155 87 -54 24 -182
33 -225 16z"/>
</g>
</svg>
