<svg width="512" height="512" viewBox="0 0 512 512" fill="none" xmlns="http://www.w3.org/2000/svg">
<path d="M435.922 74.3516C387.824 26.4336 323.84 0.0273438 255.742 0C187.797 0 123.711 26.3828 75.2969 74.2891C26.7969 122.277 0.0625 186.051 0 253.629V253.707V253.754C0.0078125 294.656 10.7539 335.918 31.1523 373.582L0.699219 512L140.711 480.152C176.172 498.023 215.738 507.445 255.645 507.461H255.746C323.68 507.461 387.766 481.074 436.188 433.164C484.73 385.137 511.477 321.445 511.508 253.824C511.527 186.68 484.688 122.941 435.922 74.3516ZM255.742 467.5H255.652C219.82 467.484 184.316 458.488 152.984 441.477L146.363 437.883L53.2617 459.059L73.4844 367.152L69.5859 360.43C50.2031 327.004 39.9609 290.105 39.9609 253.711C40.0352 135.91 136.824 39.9609 255.734 39.9609C313.18 39.9844 367.156 62.2539 407.719 102.66C448.895 143.691 471.562 197.371 471.543 253.812C471.496 371.641 374.688 467.5 255.742 467.5Z" fill="#D3A3FF"/>
</svg>
