<svg width="70" height="63" viewBox="0 0 70 63" fill="none" xmlns="http://www.w3.org/2000/svg">
<path fill-rule="evenodd" clip-rule="evenodd" d="M9 8.64305C9 4.39147 12.904 0.945557 17.7143 0.945557C22.5246 0.945557 26.4286 4.39147 26.4286 8.64305C26.4286 12.8946 22.5246 16.3405 17.7143 16.3405C12.904 16.3405 9 12.8946 9 8.64305ZM20.619 8.6431C20.619 7.22933 19.3177 6.07729 17.7143 6.07729C16.1108 6.07729 14.8095 7.22933 14.8095 8.6431C14.8095 10.0569 16.1108 11.2089 17.7143 11.2089C19.3177 11.2089 20.619 10.0569 20.619 8.6431ZM64.1905 31.7355C64.1905 30.3192 62.8891 29.1697 61.2857 29.1697C59.6823 29.1697 58.381 30.3192 58.381 31.7355C58.381 33.1493 59.6823 34.3013 61.2857 34.3013C62.8891 34.3013 64.1905 33.1518 64.1905 31.7355ZM17.7143 52.2621C19.3177 52.2621 20.619 53.4142 20.619 54.8279C20.619 56.2417 19.3177 57.3938 17.7143 57.3938C16.1108 57.3938 14.8095 56.2417 14.8095 54.8279C14.8095 53.4142 16.1108 52.2621 17.7143 52.2621ZM61.2857 24.0381C56.4754 24.0381 52.5714 27.4839 52.5714 31.7355C52.5714 35.9871 56.4754 39.433 61.2857 39.433C66.096 39.433 70 35.9871 70 31.7355C70 27.4839 66.096 24.0381 61.2857 24.0381ZM9 54.8279C9 50.5764 12.9011 47.1304 17.7143 47.1304C22.5246 47.1304 26.4286 50.5764 26.4286 54.8279C26.4286 59.0795 22.5246 62.5254 17.7143 62.5254C12.9011 62.5254 9 59.0795 9 54.8279Z" fill="#FC9256"/>
<path fill-rule="evenodd" clip-rule="evenodd" d="M35.1236 4.83746L36.4904 4.78613C50.6917 4.78613 62.9658 10.7741 69 19.5018C66.6215 19.5727 64.3889 20.0151 62.372 20.7507C57.2136 14.1444 47.5569 9.67425 36.4904 9.67425C36.4904 7.95608 35.9961 6.321 35.1236 4.83746ZM69 43.8398C62.9658 52.5676 50.6918 58.5555 36.4904 58.5555L35.1237 58.5042C35.9961 57.0206 36.4904 55.3856 36.4904 53.6674C47.5569 53.6674 57.2136 49.1972 62.372 42.5909C64.3889 43.329 66.6215 43.7714 69 43.8398ZM0 31.6708C0 37.2555 2.31216 42.4393 6.26971 46.7384C7.56678 45.3551 9.2586 44.1991 11.2025 43.3094C8.32644 39.9293 6.63461 35.9479 6.63461 31.6708C6.63461 27.3937 8.32644 23.4123 11.2025 20.0321C9.2586 19.1425 7.57009 17.9865 6.26971 16.6031C2.31216 20.9022 0 26.0861 0 31.6708Z" fill="#FFC300"/>
</svg>
