<svg width="78" height="79" viewBox="0 0 78 79" fill="none" xmlns="http://www.w3.org/2000/svg">
<path d="M63.375 10.5105H14.625C11.9326 10.5105 9.75 12.6931 9.75 15.3855V64.1355C9.75 66.828 11.9326 69.0105 14.625 69.0105H63.375C66.0675 69.0105 68.25 66.828 68.25 64.1355V15.3855C68.25 12.6931 66.0675 10.5105 63.375 10.5105Z" fill="white" stroke="#FC9256" stroke-width="1.625"/>
<path d="M31.5902 23.5105C32.3124 23.5105 32.9776 23.9021 33.3281 24.5334L35.7598 28.9135C36.0781 29.4869 36.0931 30.1806 35.7996 30.7674L34.125 34.8855C34.125 34.8855 34.5341 38.5445 37.375 41.3855C40.2162 44.2265 43.875 44.6355 43.875 44.6355L47.9808 42.9496C48.5679 42.6559 49.2619 42.671 49.8357 42.99L54.2281 45.4321C54.8589 45.7829 55.25 46.4479 55.25 47.1695V52.2121C55.25 54.78 52.8647 56.6348 50.4316 55.8137C45.4342 54.1276 37.677 50.9171 32.7602 46.0002C27.8436 41.0836 24.6329 33.3263 22.9467 28.3289C22.1257 25.8958 23.9805 23.5105 26.5485 23.5105H31.5902Z" fill="white" stroke="#FC9256" stroke-width="1.625" stroke-linejoin="round"/>
</svg>
