<svg width="130" height="79" viewBox="0 0 130 79" fill="none" xmlns="http://www.w3.org/2000/svg">
<path fill-rule="evenodd" clip-rule="evenodd" d="M73 28.4762H85V61.8319H73V28.4762ZM81 33.6078V56.7002H77V33.6078H81ZM57 38.7394H69V61.8319H57V38.7394ZM65 43.8712V56.7003H61V43.8712H65ZM41 46.437H53V61.8319H41V46.437ZM49 56.7003V51.5686H45V56.7003H49Z" fill="#FC9256"/>
<path d="M85 0.252075L73 3.38495L76.432 7.76738L62.732 25.0431L56.73 17.3405L41.048 37.3462L43.868 40.9846L56.722 24.5889L62.704 32.2685L79.264 11.3903L82.598 15.6496L85 0.252075Z" fill="#FFC300"/>
<rect y="68.2466" width="130" height="10.2633" fill="#FC9256"/>
</svg>
