<svg width="504" height="334" viewBox="0 0 504 334" fill="none" xmlns="http://www.w3.org/2000/svg">
<path d="M44.4695 298.759C55.462 291.696 58.2212 278.216 58.0721 266.01C58.0664 263.979 58.3251 261.843 57.3582 260.038C56.3912 258.233 54.0846 256.975 52.1721 257.789C50.5945 258.465 49.8759 260.206 48.9622 261.637C47.7441 263.554 45.9957 265.095 43.9186 266.085C42.5615 266.726 40.8948 267.1 39.5868 266.372C37.8191 265.37 37.627 262.935 37.6831 260.929C37.796 257.164 37.9031 253.402 38.0042 249.643C38.1794 247.622 38.0127 245.587 37.5108 243.618C37.2449 242.644 36.7438 241.746 36.0493 240.999C35.3549 240.252 34.4873 239.679 33.519 239.326C31.532 238.746 29.0466 239.803 28.5756 241.767C28.4792 242.602 28.4403 243.441 28.4592 244.281C28.4621 244.702 28.3367 245.115 28.0989 245.466C27.8611 245.818 27.5216 246.093 27.1235 246.256C26.6899 246.296 26.253 246.228 25.8541 246.057C25.4552 245.887 25.1076 245.619 24.8441 245.281C22.8289 243.095 21.1944 240.602 20.0054 237.9C18.8183 235.203 17.3063 232.653 15.5014 230.304C13.589 228.036 10.9102 226.219 7.9095 226.021C4.90878 225.823 1.67514 227.519 0.862474 230.345C0.0498051 233.171 1.69933 236.101 3.53249 238.438C6.24556 241.921 9.46119 245.002 13.0794 247.587C13.7835 247.98 14.3414 248.581 14.6726 249.304C15.0911 250.663 13.7359 251.966 12.3517 252.384C10.7735 252.853 9.07877 252.66 7.44675 252.811C5.81474 252.962 4.01649 253.621 3.36767 255.095C2.49105 257.146 4.2091 259.345 5.93388 260.795C9.41283 263.712 13.3763 266.03 17.6539 267.648C19.2308 268.103 20.7099 268.834 22.019 269.805C23.2397 270.869 23.9508 272.7 23.1694 274.106C22.3881 275.511 20.4479 275.93 18.8322 275.607C17.2739 275.159 15.7578 274.582 14.3006 273.881C11.4386 272.779 7.71514 272.892 5.81581 275.256C5.22953 276.064 4.8457 276.994 4.69519 277.972C4.54468 278.95 4.63171 279.949 4.94928 280.889C5.61363 282.757 6.65681 284.475 8.01664 285.941C12.4815 291.332 18.3293 295.473 24.9661 297.945C31.5997 300.319 37.7874 301.051 44.4786 298.846" fill="#FC9256"/>
<path d="M3.94348 227.676L4.14699 227.874L4.75737 228.414C5.29699 228.895 6.08431 229.598 7.08406 230.534C9.90536 233.17 12.5208 236.009 14.9084 239.025C16.4227 240.923 17.9994 243.08 19.6473 245.416C21.2952 247.753 23.023 250.279 24.7513 252.986C26.574 255.804 28.2348 258.719 29.7262 261.717C30.5071 263.273 31.1911 264.907 31.8841 266.566C32.577 268.226 33.2877 269.911 33.9984 271.622C36.7217 278.011 39.0705 284.545 41.0334 291.194C42.6132 296.631 43.6601 302.203 44.1599 307.833C44.487 311.629 44.4682 315.446 44.1038 319.239C43.9664 320.574 43.837 321.616 43.7243 322.322C43.6723 322.658 43.6377 322.925 43.603 323.123C43.5973 323.215 43.5976 323.307 43.6037 323.398C43.6332 323.311 43.6566 323.222 43.6736 323.131C43.673 322.933 43.7605 322.666 43.8213 322.33C43.9606 321.633 44.1165 320.608 44.2803 319.256C44.7022 315.456 44.7623 311.626 44.4599 307.815C44.0007 302.162 42.9771 296.566 41.4038 291.107C39.4545 284.436 37.1114 277.881 34.3863 271.474C33.6638 269.755 32.959 268.073 32.2719 266.427C31.5702 264.768 30.8773 263.126 30.0963 261.553C28.5903 258.545 26.9147 255.622 25.0772 252.795C23.3048 250.089 21.5859 247.58 19.938 245.243C18.2902 242.907 16.687 240.759 15.1462 238.861C12.7232 235.85 10.0597 233.031 7.18084 230.43C6.16348 229.512 5.34972 228.817 4.79252 228.363L4.16454 227.839C4.02304 227.728 3.95228 227.668 3.94348 227.676Z" fill="#263238"/>
<path d="M29.9637 261.536C30.0678 261.257 30.1409 260.968 30.1819 260.675C30.3038 260.115 30.4604 259.314 30.6252 258.306C30.9637 256.299 31.3441 253.518 31.7414 250.452C32.1386 247.387 32.5544 244.614 32.9282 242.616C33.1107 241.625 33.2672 240.816 33.3804 240.256C33.4593 239.975 33.5058 239.686 33.5191 239.395C33.3863 239.669 33.2893 239.958 33.2304 240.256C33.0731 240.799 32.8724 241.6 32.6546 242.591C32.219 244.58 31.7856 247.353 31.3619 250.428C30.9382 253.502 30.6193 256.197 30.3605 258.298C30.2308 259.237 30.1183 260.021 30.0407 260.675C29.981 260.958 29.9551 261.247 29.9637 261.536Z" fill="#263238"/>
<path d="M3.11469 256.137C3.46534 256.217 3.82294 256.265 4.1828 256.28C4.87128 256.356 5.87751 256.456 7.10452 256.625C9.56728 256.928 12.9572 257.469 16.6654 258.216C20.3736 258.963 23.7291 259.806 26.087 260.462C27.288 260.786 28.2506 261.076 28.913 261.272C29.253 261.395 29.6051 261.483 29.9638 261.536C29.6411 261.379 29.3075 261.245 28.9655 261.134C28.3119 260.895 27.358 260.571 26.1657 260.212C23.79 259.479 20.4609 258.61 16.7438 257.854C13.5701 257.198 10.3645 256.699 7.13907 256.358C5.8945 256.224 4.8884 256.166 4.20006 256.142C3.83939 256.105 3.47575 256.103 3.11469 256.137Z" fill="#263238"/>
<path d="M41.0582 290.617C41.1362 290.522 41.2012 290.418 41.2515 290.307L41.7342 289.376C42.1466 288.565 42.7168 287.385 43.401 285.928C44.7692 282.98 46.5224 278.852 48.389 274.276C50.2556 269.699 51.9823 265.554 53.2799 262.589L54.8318 259.073L55.2526 258.116C55.3403 257.892 55.384 257.771 55.3664 257.771C55.294 257.868 55.2322 257.972 55.182 258.082L54.6993 259.013C54.278 259.823 53.7166 261.004 53.0324 262.461C51.6642 265.409 49.911 269.537 48.0356 274.113C46.1601 278.689 44.4512 282.835 43.1447 285.799C42.5135 287.247 41.9874 288.437 41.5928 289.316L41.1808 290.273C41.1248 290.382 41.0836 290.498 41.0582 290.617Z" fill="#263238"/>
<path d="M5.49042 278.769C5.49042 278.769 5.60532 278.838 5.83499 278.923L6.86838 279.273L10.684 280.554C13.8989 281.629 18.3241 283.166 23.2086 284.874C28.0931 286.582 32.5358 288.076 35.777 289.091C37.4021 289.603 38.7092 289.995 39.6276 290.251L40.6784 290.541C40.9257 290.609 41.0581 290.634 41.0581 290.617C40.9458 290.557 40.8273 290.508 40.7047 290.472L39.6713 290.113L35.8646 288.841C32.6496 287.766 28.2244 286.229 23.34 284.521C18.4555 282.813 14.0039 281.311 10.7715 280.295C9.14644 279.792 7.83053 279.391 6.92094 279.136L5.86124 278.846C5.74054 278.808 5.61632 278.783 5.49042 278.769Z" fill="#263238"/>
<path d="M402.298 206.918L349.063 206.827C347.539 206.828 346.03 206.536 344.623 205.966C343.216 205.397 341.938 204.561 340.862 203.509C339.787 202.456 338.935 201.206 338.356 199.831C337.777 198.457 337.483 196.984 337.489 195.497L337.688 65.6611C337.691 64.1772 337.995 62.7086 338.581 61.3392C339.167 59.9698 340.024 58.7264 341.103 57.6801C342.181 56.6338 343.461 55.8051 344.868 55.2414C346.275 54.6777 347.782 54.39 349.304 54.3948L402.539 54.4772C405.61 54.4799 408.553 55.6707 410.725 57.7883C412.896 59.9059 414.118 62.7773 414.122 65.7727L413.923 195.618C413.922 197.105 413.621 198.577 413.036 199.951C412.451 201.324 411.594 202.572 410.515 203.621C409.435 204.671 408.153 205.503 406.743 206.069C405.333 206.634 403.823 206.923 402.298 206.918Z" fill="#455A64"/>
<path d="M402.481 58.9966L392.157 59.0257C391.821 59.0311 391.49 59.1011 391.182 59.2317C390.874 59.3623 390.596 59.5509 390.363 59.7867C390.13 60.0225 389.947 60.3008 389.825 60.6057C389.702 60.9106 389.643 61.2361 389.649 61.5635L389.655 63.3884C389.664 64.0492 389.406 64.6869 388.936 65.1634C388.467 65.64 387.824 65.9171 387.147 65.9349L367.019 65.8969C366.681 65.8901 366.348 65.8178 366.039 65.6843C365.73 65.5507 365.451 65.3585 365.219 65.1188C364.987 64.8792 364.805 64.5969 364.686 64.2883C364.567 63.9798 364.512 63.6511 364.524 63.3215L364.518 61.4794C364.529 61.1501 364.473 60.822 364.353 60.5139C364.234 60.2059 364.052 59.924 363.82 59.6846C363.588 59.4452 363.31 59.253 363.002 59.119C362.693 58.985 362.36 58.912 362.023 58.904L358.387 58.9143L349.352 58.9397C348.287 58.9371 347.232 59.1391 346.247 59.5342C345.262 59.9293 344.366 60.5098 343.611 61.2425C342.856 61.9752 342.256 62.8458 341.846 63.8046C341.436 64.7634 341.223 65.7916 341.22 66.8304L341.022 193.568C341.023 195.667 341.878 197.679 343.4 199.163C344.921 200.647 346.984 201.481 349.136 201.482L402.265 201.573C404.416 201.576 406.481 200.747 408.007 199.268C409.532 197.789 410.395 195.78 410.405 193.682L410.595 66.9448C410.6 65.9023 410.394 64.8691 409.989 63.9046C409.583 62.9401 408.986 62.0634 408.232 61.3248C407.478 60.5861 406.582 60.0002 405.595 59.6006C404.608 59.2011 403.55 58.9958 402.481 58.9966Z" fill="white"/>
<path d="M401.851 145.234L349.278 145.382L349.287 148.817L401.86 148.669L401.851 145.234Z" fill="#455A64"/>
<path d="M400.018 158.745C400.018 158.866 388.795 159.001 374.959 159.04C361.123 159.079 349.889 159.007 349.889 158.887C349.889 158.766 361.113 158.631 374.957 158.592C388.802 158.553 400.018 158.625 400.018 158.745Z" fill="#455A64"/>
<path d="M399.789 77.391C399.789 77.5201 388.565 77.6464 374.729 77.6854C360.893 77.7244 349.66 77.6614 349.66 77.5323C349.659 77.4032 360.883 77.2769 374.728 77.2379C388.573 77.1988 399.788 77.2447 399.789 77.391Z" fill="#455A64"/>
<path d="M400.036 164.995C400.036 165.115 388.812 165.25 374.976 165.289C361.14 165.328 349.907 165.257 349.907 165.136C349.906 165.016 361.13 164.881 374.975 164.842C388.82 164.803 400.035 164.866 400.036 164.995Z" fill="#455A64"/>
<path d="M400.053 171.218C400.053 171.339 388.83 171.474 374.994 171.513C361.158 171.552 349.925 171.48 349.924 171.36C349.924 171.239 361.148 171.104 374.993 171.065C388.837 171.026 400.053 171.115 400.053 171.218Z" fill="#455A64"/>
<path d="M400.071 177.485C400.071 177.605 388.847 177.74 375.011 177.779C361.176 177.818 349.942 177.747 349.942 177.626C349.942 177.506 361.165 177.371 375.01 177.332C388.855 177.293 400.07 177.356 400.071 177.485Z" fill="#455A64"/>
<path d="M400.088 183.726C400.089 183.855 388.865 183.981 375.029 184.02C361.193 184.059 349.96 183.996 349.96 183.867C349.959 183.738 361.183 183.612 375.028 183.573C388.873 183.534 400.088 183.605 400.088 183.726Z" fill="#455A64"/>
<path d="M400.823 190.808C400.824 190.929 389.6 191.064 375.764 191.103C361.928 191.142 350.695 191.07 350.694 190.949C350.694 190.829 361.918 190.694 375.763 190.655C389.607 190.616 400.823 190.679 400.823 190.808Z" fill="#455A64"/>
<path d="M402.385 84.4854L349.68 84.634L349.82 134.38L402.525 134.231L402.385 84.4854Z" fill="#E0E0E0"/>
<path d="M353.894 130.107L368.407 104.466L380.375 120.796L387.595 112.081L398.428 129.982L353.894 130.107Z" fill="#FC9256"/>
<path d="M385.397 99.4424C385.399 100.175 385.179 100.891 384.764 101.501C384.348 102.111 383.757 102.587 383.065 102.869C382.372 103.151 381.609 103.226 380.873 103.086C380.136 102.945 379.459 102.594 378.927 102.078C378.395 101.562 378.032 100.903 377.884 100.186C377.735 99.4681 377.808 98.7237 378.093 98.0465C378.379 97.3694 378.863 96.7899 379.486 96.3814C380.109 95.973 380.842 95.7538 381.592 95.7517C382.598 95.7511 383.563 96.1391 384.276 96.8308C384.989 97.5224 385.392 98.4615 385.397 99.4424Z" fill="#FC9256"/>
<path d="M398.429 130.119C398.429 130.119 398.428 130.05 398.428 129.913C398.428 129.775 398.427 129.577 398.426 129.336C398.425 128.802 398.423 128.062 398.42 127.098C398.414 125.127 398.406 122.269 398.334 118.645C398.314 111.38 398.223 101.033 398.144 88.612L398.356 88.818L353.831 88.9435C353.769 88.9953 354.297 88.4773 354.077 88.7018L354.108 99.8922C354.119 103.551 354.129 107.132 354.139 110.609C354.158 117.582 354.177 124.167 354.194 130.227L353.973 130.012L386.172 130.033L395.261 130.059L397.669 130.053L398.287 130.051L398.508 130.05L398.314 130.051L397.714 130.053L395.349 130.059L386.313 130.136L353.974 130.339L353.753 130.34L353.752 130.125C353.735 124.099 353.717 117.48 353.697 110.507C353.687 107.064 353.677 103.449 353.667 99.7901L353.635 88.5997C353.407 88.8156 353.935 88.289 353.891 88.3494L398.416 88.2239L398.505 88.2236L398.506 88.5851C398.488 101.067 398.482 111.457 398.476 118.757C398.486 122.355 398.494 125.195 398.447 127.158C398.449 128.105 398.451 128.837 398.453 129.353C398.453 129.586 398.454 129.766 398.454 129.913C398.456 129.982 398.447 130.052 398.429 130.119Z" fill="#455A64"/>
<path d="M125.13 11.005L125.454 125.681C125.469 131.172 130.045 135.61 135.673 135.594L313.247 135.094C318.875 135.078 323.426 130.614 323.41 125.123L323.087 10.447C323.071 4.956 318.496 0.517574 312.867 0.533441L135.294 1.034C129.665 1.04987 125.115 5.51402 125.13 11.005Z" fill="#455A64"/>
<path d="M138.65 5.26836L139.006 131.341L304.322 130.875L303.967 4.80235L138.65 5.26836Z" fill="white"/>
<path d="M313.281 62.6482C314.328 62.6452 315.352 62.9452 316.224 63.5103C317.097 64.0754 317.778 64.8801 318.181 65.8227C318.584 66.7653 318.692 67.8035 318.491 68.8059C318.289 69.8084 317.787 70.7301 317.049 71.4545C316.311 72.1789 315.369 72.6735 314.342 72.8756C313.316 73.0778 312.251 72.9785 311.282 72.5903C310.314 72.2022 309.485 71.5425 308.901 70.6948C308.317 69.8471 308.004 68.8494 308.001 67.8279C307.997 66.4581 308.551 65.1428 309.541 64.1715C310.531 63.2001 311.876 62.6521 313.281 62.6482Z" fill="#263238"/>
<path d="M130.938 49.1138L131.047 87.54C131.048 88.12 131.531 88.5888 132.126 88.5871L132.161 88.587C132.756 88.5853 133.237 88.1138 133.235 87.5338L133.127 49.1076C133.125 48.5276 132.642 48.0588 132.047 48.0605L132.012 48.0606C131.417 48.0623 130.937 48.5338 130.938 49.1138Z" fill="#263238"/>
<path d="M266.66 14.3764L214.086 14.5246L214.096 17.9592L266.669 17.811L266.66 14.3764Z" fill="#455A64"/>
<path d="M198.343 73.5601L145.77 73.7083L145.78 77.1429L198.353 76.9947L198.343 73.5601Z" fill="#455A64"/>
<path d="M279.499 27.1146C279.499 27.2437 264.87 27.3796 246.851 27.4304C228.833 27.4812 214.158 27.4279 214.158 27.2988C214.157 27.1696 228.787 27.0337 246.85 26.9828C264.912 26.9319 279.499 26.9941 279.499 27.1146Z" fill="#455A64"/>
<path d="M279.52 34.6121C279.52 34.7326 264.891 34.8772 246.872 34.928C228.854 34.9788 214.179 34.9168 214.179 34.7963C214.179 34.6758 228.808 34.5313 246.871 34.4804C264.933 34.4294 279.52 34.483 279.52 34.6121Z" fill="#455A64"/>
<path d="M279.541 42.1011C279.542 42.2217 264.912 42.3662 246.893 42.417C228.875 42.4678 214.2 42.4058 214.2 42.2853C214.2 42.1648 228.829 42.0203 246.892 41.9694C264.955 41.9184 279.541 41.9806 279.541 42.1011Z" fill="#455A64"/>
<path d="M279.562 49.5901C279.563 49.7192 264.933 49.8551 246.914 49.9059C228.896 49.9567 214.221 49.9034 214.221 49.7743C214.221 49.6452 228.851 49.5092 246.913 49.4583C264.976 49.4074 279.562 49.4696 279.562 49.5901Z" fill="#455A64"/>
<path d="M279.583 57.0704C279.584 57.191 264.954 57.3355 246.936 57.3863C228.917 57.4371 214.243 57.3751 214.242 57.2546C214.242 57.1341 228.872 56.9896 246.934 56.9387C264.997 56.8877 279.583 56.9585 279.583 57.0704Z" fill="#455A64"/>
<path d="M265.266 64.617C265.266 64.7376 253.839 64.8731 239.748 64.9128C225.656 64.9525 214.229 64.8814 214.228 64.7609C214.228 64.6404 225.646 64.5049 239.746 64.4652C253.847 64.4254 265.266 64.4965 265.266 64.617Z" fill="#455A64"/>
<path d="M232.15 86.9709C232.151 87.0914 212.95 87.2488 189.267 87.3156C165.583 87.3823 146.382 87.3332 146.382 87.2126C146.381 87.0921 165.582 86.9347 189.265 86.8679C212.949 86.8012 232.15 86.8417 232.15 86.9709Z" fill="#455A64"/>
<path d="M232.168 93.2117C232.168 93.3408 212.968 93.4896 189.284 93.5564C165.601 93.6231 146.4 93.5826 146.399 93.4535C146.399 93.3244 165.6 93.1755 189.283 93.1088C212.967 93.042 232.168 93.0912 232.168 93.2117Z" fill="#455A64"/>
<path d="M232.186 99.4611C232.186 99.5816 212.985 99.7391 189.302 99.8058C165.618 99.8726 146.417 99.8234 146.417 99.7029C146.417 99.5824 165.617 99.4249 189.301 99.3582C212.984 99.2914 232.185 99.332 232.186 99.4611Z" fill="#455A64"/>
<path d="M232.203 105.702C232.204 105.831 213.003 105.98 189.32 106.047C165.636 106.113 146.435 106.073 146.435 105.944C146.434 105.815 165.635 105.666 189.318 105.599C213.002 105.532 232.203 105.581 232.203 105.702Z" fill="#455A64"/>
<path d="M232.221 111.951C232.221 112.072 213.021 112.229 189.337 112.296C165.654 112.363 146.452 112.314 146.452 112.193C146.452 112.073 165.652 111.915 189.336 111.848C213.019 111.782 232.221 111.831 232.221 111.951Z" fill="#455A64"/>
<path d="M198.878 12.8028L146.172 12.9514L146.313 62.6971L199.018 62.5485L198.878 12.8028Z" fill="#FC9256"/>
<path d="M150.386 58.4332L164.9 32.7918L176.867 49.1134L184.087 40.4075L194.921 58.3076L150.386 58.4332Z" fill="#E0E0E0"/>
<path d="M181.89 27.7598C181.893 28.4923 181.674 29.2094 181.26 29.8204C180.846 30.4314 180.256 30.9088 179.563 31.1922C178.871 31.4756 178.108 31.5523 177.371 31.4126C176.634 31.2728 175.956 30.9229 175.423 30.407C174.89 29.8912 174.526 29.2327 174.377 28.5149C174.228 27.7971 174.3 27.0522 174.585 26.3745C174.87 25.6969 175.355 25.1169 175.978 24.708C176.601 24.2992 177.334 24.0798 178.085 24.0777C179.09 24.0748 180.055 24.4609 180.768 25.1512C181.481 25.8415 181.885 26.7796 181.89 27.7598Z" fill="#E0E0E0"/>
<path d="M194.921 58.4454C194.921 58.4454 194.921 58.3679 194.921 58.2388C194.92 58.1097 194.92 57.9031 194.919 57.6621C194.917 57.1284 194.915 56.3795 194.913 55.424C194.907 53.4442 194.899 50.5949 194.836 46.9711C194.815 39.7059 194.724 29.3592 194.645 16.938L194.858 17.144L150.332 17.2695C150.27 17.3213 150.798 16.812 150.578 17.0364L150.594 22.6574C150.599 24.5168 150.605 26.3675 150.61 28.1924L150.64 38.9094C150.66 45.8819 150.678 52.467 150.695 58.527L150.474 58.3125L182.673 58.325L191.753 58.3597L194.162 58.3529L194.788 58.3511L195.009 58.3505L194.815 58.351L194.215 58.3527L191.85 58.3594L182.815 58.4451L150.475 58.6396L150.254 58.6402L150.254 58.425C150.237 52.3994 150.218 45.7798 150.199 38.8073C150.189 35.3239 150.179 31.7516 150.168 28.0903L150.137 16.8999C149.908 17.1158 150.436 16.5892 150.392 16.641L194.918 16.5154L195.138 16.5148L195.139 16.73C195.13 29.2032 195.124 39.6017 195.118 46.9014C195.128 50.4996 195.092 53.3403 195.089 55.303C195.091 56.2413 195.094 57.0246 195.095 57.498C195.096 57.7305 195.096 57.9112 195.096 58.0576C195.091 58.2039 195.028 58.3425 194.921 58.4454Z" fill="#455A64"/>
<path d="M281.263 79.9201L243.964 80.0253L244.063 115.232L281.362 115.127L281.263 79.9201Z" fill="#FC9256"/>
<path d="M246.949 112.211L257.213 94.0708L265.69 105.625L270.8 99.4556L278.459 112.122L246.949 112.211Z" fill="#E0E0E0"/>
<path d="M269.239 90.5075C269.24 91.0183 269.087 91.518 268.797 91.9435C268.507 92.369 268.095 92.7011 267.612 92.898C267.128 93.0948 266.596 93.1474 266.082 93.0492C265.569 92.951 265.096 92.7064 264.725 92.3463C264.354 91.9862 264.1 91.5268 263.997 91.0261C263.893 90.5255 263.944 90.0061 264.143 89.5337C264.342 89.0612 264.68 88.657 265.115 88.372C265.55 88.087 266.061 87.9341 266.584 87.9326C267.287 87.9306 267.961 88.2008 268.458 88.6837C268.956 89.1666 269.237 89.8226 269.239 90.5075Z" fill="#E0E0E0"/>
<path d="M278.46 112.217C278.46 112.217 278.46 112.165 278.459 112.079C278.459 111.993 278.459 111.838 278.458 111.666C278.457 111.287 278.456 110.805 278.454 110.082C278.45 108.688 278.444 106.639 278.437 104.057C278.422 98.8918 278.357 91.5923 278.297 82.8036L278.448 82.9495L246.937 83.0384C246.893 83.0385 247.272 82.7103 247.113 82.8743L247.136 90.7765C247.143 93.3589 247.15 95.8867 247.157 98.3601C247.171 103.292 247.184 107.949 247.196 112.236L247.046 112.09L269.741 112.19L276.165 112.172L277.877 112.167L278.468 112.165C278.468 112.165 278.424 112.165 278.336 112.166L277.912 112.167L276.236 112.172L269.839 112.233L246.958 112.375L246.799 112.375L246.799 112.22C246.787 107.916 246.774 103.276 246.76 98.344L246.717 82.9873C246.558 83.1341 246.937 82.7629 246.901 82.806L278.412 82.7172L278.571 82.7168L278.571 82.8631C278.596 91.6949 278.555 99.0463 278.552 104.211C278.559 106.794 278.565 108.773 278.524 110.159C278.526 110.831 278.528 111.347 278.529 111.717C278.529 111.881 278.53 112.01 278.53 112.113C278.53 112.217 278.469 112.226 278.46 112.217Z" fill="#455A64"/>
<path d="M308.308 148.709L57.3113 149.416C50.2108 149.436 44.4706 155.068 44.4901 161.994L44.9226 315.415C44.9421 322.341 50.714 327.94 57.8145 327.92L308.812 327.213C315.912 327.193 321.652 321.561 321.633 314.635L321.2 161.214C321.181 154.287 315.409 148.689 308.308 148.709Z" fill="#263238"/>
<path d="M33.3524 314.793L333.146 313.948L333.147 314.249C333.158 318.313 331.514 322.215 328.577 325.097C325.64 327.979 321.649 329.604 317.483 329.616L49.103 330.372C44.9374 330.384 40.9378 328.781 37.9841 325.916C35.0304 323.051 33.3647 319.158 33.3532 315.094L33.3524 314.793Z" fill="#263238"/>
<path d="M312.987 155.788L51.9043 156.524L52.3293 307.268L313.412 306.532L312.987 155.788Z" fill="#E0E0E0"/>
<path d="M155.996 314.447L159.736 320.213L212.08 320.065L215.523 314.28L155.996 314.447Z" fill="#455A64"/>
<path d="M301.015 165.868L60.6418 166.545L61.0383 307.192L301.411 306.514L301.015 165.868Z" fill="#FAFAFA"/>
<path d="M70.9236 173.446C70.9265 173.836 70.8105 174.218 70.5905 174.544C70.3704 174.87 70.0562 175.125 69.6875 175.277C69.3189 175.428 68.9124 175.47 68.5197 175.396C68.1269 175.322 67.7655 175.136 67.4813 174.861C67.197 174.587 67.0027 174.236 66.9229 173.854C66.8432 173.471 66.8815 173.074 67.0332 172.713C67.1849 172.352 67.443 172.043 67.7748 171.825C68.1067 171.607 68.4974 171.49 68.8974 171.489C69.4318 171.487 69.945 171.693 70.3248 172.059C70.7045 172.426 70.9198 172.925 70.9236 173.446Z" fill="#455A64"/>
<path d="M79.1475 173.423C79.1503 173.813 79.0342 174.196 78.8137 174.522C78.5933 174.848 78.2785 175.103 77.9093 175.254C77.5402 175.406 77.1332 175.447 76.7402 175.372C76.3472 175.297 75.9858 175.11 75.7019 174.835C75.418 174.56 75.2244 174.208 75.1456 173.825C75.0669 173.442 75.1065 173.045 75.2595 172.684C75.4125 172.323 75.672 172.014 76.0051 171.798C76.3381 171.581 76.7297 171.465 77.1301 171.466C77.6637 171.464 78.176 171.67 78.5543 172.037C78.9327 172.404 79.146 172.902 79.1475 173.423Z" fill="#455A64"/>
<path d="M87.3804 173.4C87.3832 173.79 87.2673 174.172 87.0472 174.498C86.8272 174.824 86.5129 175.079 86.1442 175.23C85.7756 175.382 85.3691 175.423 84.9764 175.349C84.5836 175.275 84.2222 175.089 83.9379 174.815C83.6536 174.54 83.4593 174.19 83.3795 173.807C83.2998 173.425 83.3382 173.028 83.4898 172.667C83.6415 172.306 83.8996 171.996 84.2315 171.779C84.5634 171.561 84.9541 171.444 85.3541 171.443C85.6191 171.441 85.8818 171.49 86.1272 171.587C86.3726 171.685 86.5958 171.828 86.7841 172.01C86.9724 172.192 87.122 172.408 87.2243 172.647C87.3266 172.885 87.3797 173.141 87.3804 173.4Z" fill="#455A64"/>
<path d="M301.059 181.405C301.059 181.534 247.233 181.781 180.877 181.968C114.521 182.155 60.686 182.212 60.6856 182.083C60.6853 181.954 114.511 181.707 180.876 181.52C247.241 181.333 301.058 181.285 301.059 181.405Z" fill="#455A64"/>
<path d="M321.631 314.101L44.9209 314.881L44.9233 315.742L321.633 314.962L321.631 314.101Z" fill="#455A64"/>
<path d="M133.155 250.218L80.5822 250.366L80.5919 253.801L133.165 253.653L133.155 250.218Z" fill="#455A64"/>
<path d="M200.93 202.39L148.357 202.538L148.367 205.973L200.94 205.825L200.93 202.39Z" fill="#455A64"/>
<path d="M279.164 214.952C279.164 215.073 249.887 215.259 213.779 215.36C177.671 215.462 148.393 215.442 148.393 215.321C148.393 215.201 177.661 215.006 213.778 214.904C249.894 214.802 279.163 214.823 279.164 214.952Z" fill="#455A64"/>
<path d="M279.185 222.441C279.185 222.562 249.908 222.748 213.8 222.849C177.693 222.951 148.414 222.931 148.414 222.81C148.414 222.689 177.682 222.504 213.799 222.402C249.915 222.3 279.185 222.347 279.185 222.441Z" fill="#455A64"/>
<path d="M279.206 229.93C279.206 230.059 249.929 230.237 213.821 230.338C177.714 230.44 148.436 230.428 148.435 230.299C148.435 230.17 177.704 229.993 213.82 229.891C249.936 229.789 279.206 229.81 279.206 229.93Z" fill="#455A64"/>
<path d="M279.227 237.428C279.228 237.548 249.95 237.734 213.842 237.836C177.735 237.938 148.457 237.917 148.456 237.797C148.456 237.676 177.725 237.482 213.841 237.38C249.958 237.278 279.227 237.299 279.227 237.428Z" fill="#455A64"/>
<path d="M279.248 244.917C279.249 245.037 249.971 245.223 213.864 245.325C177.756 245.427 148.478 245.406 148.477 245.286C148.477 245.165 177.746 244.979 213.862 244.877C249.979 244.776 279.248 244.788 279.248 244.917Z" fill="#455A64"/>
<path d="M199.545 252.631C199.545 252.751 188.119 252.887 174.027 252.926C159.935 252.966 148.499 252.895 148.499 252.775C148.498 252.654 159.969 252.518 174.026 252.479C188.082 252.439 199.545 252.51 199.545 252.631Z" fill="#455A64"/>
<path d="M278.349 266.948C278.349 267.077 259.104 267.226 235.377 267.292C211.649 267.359 192.404 267.319 192.403 267.19C192.403 267.061 211.639 266.912 235.375 266.845C259.112 266.778 278.348 266.827 278.349 266.948Z" fill="#455A64"/>
<path d="M278.371 274.901C278.371 275.022 259.127 275.179 235.399 275.246C211.671 275.313 192.426 275.264 192.426 275.144C192.425 275.023 211.661 274.866 235.398 274.799C259.134 274.732 278.371 274.781 278.371 274.901Z" fill="#455A64"/>
<path d="M278.393 282.855C278.394 282.976 259.149 283.133 235.421 283.2C211.694 283.267 192.448 283.218 192.448 283.097C192.448 282.977 211.684 282.819 235.42 282.752C259.157 282.686 278.393 282.726 278.393 282.855Z" fill="#455A64"/>
<path d="M278.416 290.809C278.416 290.929 259.171 291.087 235.444 291.154C211.716 291.221 192.471 291.172 192.471 291.051C192.47 290.931 211.706 290.773 235.443 290.706C259.179 290.639 278.415 290.68 278.416 290.809Z" fill="#455A64"/>
<path d="M133.334 266.599C133.334 266.719 121.863 266.855 107.745 266.895C93.6267 266.935 82.1553 266.864 82.1549 266.743C82.1546 266.623 93.6255 266.487 107.744 266.447C121.862 266.407 133.334 266.47 133.334 266.599Z" fill="#455A64"/>
<path d="M133.352 272.84C133.352 272.969 121.881 273.096 107.763 273.136C93.6443 273.175 82.1729 273.113 82.1726 272.984C82.1722 272.855 93.6431 272.728 107.761 272.688C121.88 272.648 133.351 272.685 133.352 272.84Z" fill="#455A64"/>
<path d="M133.369 279.089C133.369 279.209 121.899 279.345 107.78 279.385C93.662 279.425 82.1905 279.354 82.1902 279.233C82.1898 279.113 93.6607 278.977 107.779 278.937C121.897 278.898 133.369 278.968 133.369 279.089Z" fill="#455A64"/>
<path d="M133.387 285.33C133.387 285.459 121.916 285.586 107.798 285.626C93.6796 285.666 82.2082 285.603 82.2078 285.474C82.2074 285.345 93.6783 285.218 107.797 285.178C121.915 285.138 133.386 285.209 133.387 285.33Z" fill="#455A64"/>
<path d="M133.404 291.622C133.405 291.743 121.934 291.878 107.816 291.918C93.6973 291.958 82.2259 291.887 82.2255 291.767C82.2252 291.646 93.696 291.51 107.814 291.471C121.933 291.431 133.404 291.459 133.404 291.622Z" fill="#455A64"/>
<path d="M133.122 191.373L80.4164 191.522L80.5566 241.268L133.262 241.119L133.122 191.373Z" fill="#E0E0E0"/>
<path d="M84.63 236.995L99.1438 211.354L111.111 227.684L118.34 218.978L129.165 236.87L84.63 236.995Z" fill="#FC9256"/>
<path d="M116.134 206.33C116.136 207.063 115.915 207.779 115.5 208.389C115.085 208.999 114.493 209.475 113.801 209.757C113.108 210.039 112.346 210.114 111.609 209.974C110.873 209.833 110.196 209.482 109.664 208.966C109.132 208.45 108.768 207.791 108.62 207.074C108.472 206.356 108.545 205.612 108.83 204.935C109.115 204.257 109.6 203.678 110.223 203.269C110.845 202.861 111.578 202.642 112.329 202.64C113.335 202.637 114.301 203.024 115.015 203.716C115.728 204.408 116.131 205.349 116.134 206.33Z" fill="#FC9256"/>
<path d="M129.165 237.007C129.161 236.941 129.161 236.875 129.164 236.809C129.164 236.654 129.163 236.465 129.163 236.224C129.161 235.699 129.159 234.95 129.156 233.986C129.151 232.015 129.143 229.165 129.071 225.542C129.05 218.276 128.959 207.93 128.88 195.5L129.093 195.715L84.5671 195.84C84.5055 195.892 85.0335 195.374 84.8135 195.598L84.8451 206.789C84.8553 210.439 84.8654 214.02 84.8753 217.506C84.8949 224.47 84.9135 231.055 84.9305 237.115L84.7094 236.909L116.908 236.921L125.997 236.956L128.406 236.949L129.244 236.947C129.244 236.947 129.182 236.947 129.05 236.947L128.45 236.949L126.085 236.956L117.05 237.041L84.7103 237.236L84.4985 237.237L84.4979 237.021C84.4809 230.996 84.4622 224.376 84.4426 217.412C84.4328 213.926 84.4227 210.345 84.4124 206.695L84.3809 195.505L84.6361 195.255L129.162 195.129L129.382 195.128L129.383 195.335C129.418 207.817 129.359 218.207 129.353 225.506C129.363 229.113 129.371 231.945 129.324 233.908C129.327 234.855 129.329 235.587 129.33 236.112C129.331 236.344 129.331 236.525 129.332 236.663C129.332 236.8 129.174 237.016 129.165 237.007Z" fill="#455A64"/>
<path d="M185.792 263.412L148.493 263.517L148.593 298.724L185.892 298.619L185.792 263.412Z" fill="#E0E0E0"/>
<path d="M151.479 295.703L161.743 277.563L170.22 289.117L175.329 282.948L182.998 295.614L151.479 295.703Z" fill="#FC9256"/>
<path d="M173.768 274C173.77 274.51 173.616 275.01 173.326 275.436C173.037 275.861 172.624 276.193 172.141 276.39C171.658 276.587 171.126 276.64 170.612 276.541C170.098 276.443 169.626 276.199 169.255 275.838C168.884 275.478 168.63 275.019 168.527 274.518C168.423 274.018 168.474 273.498 168.673 273.026C168.872 272.553 169.21 272.149 169.645 271.864C170.079 271.579 170.591 271.426 171.114 271.425C171.816 271.423 172.49 271.693 172.988 272.176C173.486 272.659 173.767 273.315 173.768 274Z" fill="#FC9256"/>
<path d="M182.998 295.718C182.995 295.669 182.995 295.62 182.998 295.571C182.997 295.468 182.997 295.33 182.996 295.158C182.995 294.788 182.994 294.297 182.992 293.574C182.988 292.18 182.982 290.131 182.931 287.592C182.916 282.427 182.896 275.127 182.801 266.339L182.951 266.485L151.432 266.574C151.432 266.574 151.766 266.246 151.608 266.41L151.651 281.904C151.665 286.836 151.679 291.493 151.691 295.789L151.531 295.634L174.324 295.647L180.748 295.672L182.451 295.668L180.774 295.672L174.386 295.69L151.497 295.832L151.347 295.833L151.346 295.686C151.334 291.382 151.321 286.734 151.307 281.802C151.3 279.34 151.293 276.8 151.286 274.218L151.263 266.333C151.105 266.48 151.475 266.109 151.439 266.152L182.959 266.063L183.109 266.062L183.109 266.209C183.134 275.041 183.093 282.392 183.09 287.566C183.097 290.148 183.103 292.119 183.107 293.505C183.108 294.177 183.11 294.693 183.111 295.063C183.111 295.227 183.112 295.356 183.112 295.459C183.092 295.552 183.053 295.639 182.998 295.718Z" fill="#455A64"/>
<path d="M497.396 313.838L488.569 312.839L486.541 328.976L499.455 330.566L499.646 329.576C500.463 325.149 503.456 307.029 502.9 303.94C502.282 300.499 497.396 313.838 497.396 313.838Z" fill="#FC9256"/>
<path d="M502.129 302.789C502.288 302.789 501.696 308.868 500.809 316.316C499.921 323.765 499.082 329.793 498.923 329.776C498.764 329.759 499.365 323.749 500.244 316.249C501.123 308.749 501.97 302.772 502.129 302.789Z" fill="#263238"/>
<path d="M499.229 313.075C499.141 313.196 498.682 313.025 498.257 312.631C497.832 312.236 497.654 311.771 497.778 311.694C497.901 311.616 498.272 311.864 498.662 312.233C499.051 312.602 499.326 312.972 499.229 313.075Z" fill="#263238"/>
<path d="M499.932 312.109C499.862 312.247 499.341 312.111 498.828 311.734C498.315 311.356 498.031 310.875 498.146 310.789C498.26 310.702 498.693 310.933 499.171 311.285C499.648 311.637 500.011 311.971 499.932 312.109Z" fill="#263238"/>
<path d="M499.447 324.902C499.448 324.971 499.228 325.187 498.787 325.498C498.228 325.872 497.706 326.297 497.229 326.768C496.779 327.236 496.453 327.804 496.281 328.423C496.158 328.906 496.195 329.224 496.106 329.242C496.018 329.259 495.859 328.941 495.883 328.381C495.943 327.647 496.252 326.953 496.76 326.408C497.264 325.892 497.861 325.473 498.522 325.172C499.077 324.929 499.403 324.833 499.447 324.902Z" fill="#263238"/>
<path d="M497.578 312.839C497.719 312.778 498.002 313.096 498.109 313.569C498.217 314.042 498.112 314.43 497.953 314.43C497.794 314.431 497.652 314.087 497.554 313.665C497.456 313.244 497.428 312.9 497.578 312.839Z" fill="#263238"/>
<path d="M496.696 312.979C496.846 312.979 496.927 313.426 496.875 313.977C496.824 314.528 496.64 314.942 496.49 314.908C496.34 314.874 496.25 314.435 496.31 313.919C496.371 313.402 496.537 312.98 496.696 312.979Z" fill="#263238"/>
<path d="M492.059 330.243L443.134 325.543L341.718 328.041L368.624 306.755L436.304 303.397L495.509 311.183L492.059 330.243Z" fill="#263238"/>
<path d="M409.35 317.228C409.351 317.357 399.83 317.479 388.085 317.512C376.34 317.545 366.828 317.477 366.828 317.348C366.827 317.219 376.339 317.097 388.084 317.064C399.829 317.031 409.35 317.108 409.35 317.228Z" fill="#455A64"/>
<path d="M404.586 304.967L408.123 326.296L414.794 326.277L409.659 304.72L404.586 304.967Z" fill="black"/>
<path d="M430.466 326.517L429.453 317.912L412.878 319.68L414.193 332.279L415.225 332.276C419.831 332.039 438.596 330.764 441.549 329.533C444.88 328.121 430.466 326.517 430.466 326.517Z" fill="#FC9256"/>
<path d="M441.89 328.628C441.891 328.783 435.716 329.601 428.086 330.458C420.455 331.314 414.245 331.883 414.227 331.728C414.209 331.573 420.401 330.763 428.022 329.907C435.644 329.05 441.872 328.508 441.89 328.628Z" fill="#263238"/>
<path d="M430.947 328.246C430.797 328.186 430.866 327.712 431.165 327.221C431.464 326.729 431.877 326.453 431.992 326.547C432.107 326.642 431.932 327.055 431.66 327.504C431.388 327.952 431.106 328.306 430.947 328.246Z" fill="#263238"/>
<path d="M432.087 328.656C431.937 328.656 431.953 328.097 432.216 327.519C432.479 326.942 432.866 326.579 432.999 326.656C433.131 326.733 433 327.199 432.737 327.733C432.474 328.267 432.237 328.733 432.087 328.656Z" fill="#263238"/>
<path d="M419.202 331.137C419.149 331.189 418.866 330.991 418.459 330.648C417.959 330.203 417.417 329.804 416.841 329.456C416.271 329.135 415.627 328.956 414.969 328.937C414.466 328.938 414.149 329.034 414.086 328.939C414.024 328.844 414.324 328.637 414.906 328.532C415.664 328.425 416.437 328.575 417.096 328.956C417.724 329.322 418.276 329.799 418.723 330.364C419.095 330.801 419.264 331.085 419.202 331.137Z" fill="#263238"/>
<path d="M430.819 326.619C430.916 326.74 430.661 327.076 430.212 327.292C429.763 327.509 429.33 327.493 429.33 327.347C429.33 327.2 429.602 326.984 429.999 326.794C430.395 326.603 430.73 326.49 430.819 326.619Z" fill="#263238"/>
<path d="M430.464 325.811C430.464 325.966 430.068 326.139 429.512 326.21C428.956 326.28 428.497 326.213 428.488 326.058C428.479 325.903 428.911 325.73 429.44 325.659C429.969 325.589 430.428 325.665 430.464 325.811Z" fill="#263238"/>
<path d="M333.178 228.323L347.295 228.034C347.485 226.441 347.741 220.234 347.741 220.234C347.741 220.234 353.652 219.675 354.068 213.975C354.484 208.275 354.262 195.088 354.262 195.088C351.017 193.502 347.398 192.789 343.776 193.023C340.155 193.258 336.663 194.43 333.661 196.42L332.781 197.026L333.178 228.323Z" fill="#B78876"/>
<path d="M352.339 204.83C352.185 204.67 352.099 204.46 352.098 204.241C352.097 204.022 352.182 203.81 352.336 203.65C352.457 203.524 352.613 203.437 352.786 203.399C352.958 203.361 353.139 203.374 353.303 203.437C353.468 203.5 353.609 203.61 353.709 203.752C353.809 203.895 353.862 204.063 353.863 204.236C353.863 204.408 353.811 204.577 353.712 204.72C353.613 204.863 353.472 204.974 353.308 205.038C353.143 205.102 352.963 205.116 352.791 205.079C352.618 205.042 352.461 204.955 352.339 204.83Z" fill="#263238"/>
<path d="M353.827 203.603C353.73 203.698 353.182 203.235 352.379 203.185C351.575 203.136 350.959 203.508 350.879 203.405C350.799 203.302 350.94 203.181 351.205 203.008C351.565 202.786 351.988 202.682 352.413 202.712C352.836 202.736 353.239 202.896 353.561 203.165C353.826 203.379 353.889 203.56 353.827 203.603Z" fill="#263238"/>
<path d="M344.509 203.758C344.636 203.904 344.71 204.086 344.718 204.277C344.727 204.468 344.671 204.656 344.558 204.812C344.445 204.968 344.283 205.083 344.096 205.139C343.909 205.195 343.708 205.189 343.525 205.121C343.399 205.075 343.285 205.001 343.193 204.905C343.101 204.809 343.033 204.694 342.993 204.569C342.954 204.443 342.944 204.31 342.965 204.181C342.987 204.051 343.038 203.928 343.116 203.82C343.193 203.713 343.295 203.624 343.413 203.561C343.531 203.498 343.662 203.462 343.797 203.456C343.931 203.45 344.065 203.474 344.189 203.527C344.312 203.579 344.422 203.658 344.509 203.758Z" fill="#263238"/>
<path d="M345.003 203.792C344.907 203.886 344.358 203.423 343.546 203.374C342.734 203.325 342.135 203.696 342.047 203.593C341.958 203.49 342.108 203.369 342.381 203.196C342.74 202.974 343.163 202.87 343.587 202.9C344.012 202.93 344.415 203.092 344.738 203.362C345.003 203.568 345.083 203.757 345.003 203.792Z" fill="#263238"/>
<path d="M347.881 210.472C348.305 210.335 348.749 210.27 349.196 210.279C349.407 210.278 349.584 210.226 349.601 210.123C349.622 209.915 349.582 209.706 349.485 209.52L348.942 207.886C348.42 206.493 348.043 205.052 347.818 203.586C348.484 204.914 349.009 206.306 349.383 207.739C349.561 208.307 349.721 208.848 349.89 209.382C350.011 209.653 350.034 209.957 349.954 210.242C349.918 210.319 349.864 210.387 349.797 210.441C349.73 210.495 349.651 210.533 349.567 210.553C349.447 210.569 349.325 210.57 349.205 210.554C348.762 210.598 348.315 210.571 347.881 210.472Z" fill="#263238"/>
<path d="M345.21 211.194C344.396 210.654 347.446 212.522 349.096 212.534C348.796 212.932 348.368 213.22 347.88 213.351C347.392 213.482 346.873 213.449 346.407 213.256C344.693 212.53 345.21 211.194 345.21 211.194Z" fill="white"/>
<path d="M347.776 220.148C345.068 220.039 342.455 219.148 340.269 217.586C340.269 217.586 341.825 221.8 347.701 221.62L347.776 220.148Z" fill="#A36957"/>
<path d="M354.68 193.03C355.015 193.018 355.344 192.931 355.639 192.777C355.935 192.622 356.191 192.403 356.386 192.136C356.582 191.87 356.713 191.564 356.768 191.241C356.823 190.918 356.802 190.586 356.705 190.273C356.609 189.959 356.44 189.671 356.212 189.431C355.984 189.19 355.702 189.004 355.389 188.887C355.075 188.77 354.738 188.724 354.404 188.753C354.07 188.783 353.746 188.886 353.46 189.056C354.159 188.491 354.728 187.789 355.13 186.994C355.323 186.595 355.387 186.148 355.311 185.712C355.236 185.277 355.026 184.875 354.709 184.56C354.34 184.314 353.909 184.17 353.463 184.144C353.017 184.118 352.572 184.211 352.176 184.412C350.933 184.94 349.957 185.967 348.652 186.402C347.347 186.836 345.952 186.624 344.585 186.688C343.061 186.721 341.586 187.222 340.371 188.121C339.773 188.574 339.293 189.159 338.968 189.826C338.644 190.494 338.484 191.226 338.502 191.965C336.587 191.747 334.469 191.727 332.963 192.893C332.358 193.422 331.88 194.075 331.563 194.805C331.246 195.535 331.099 196.324 331.131 197.116C331.283 198.698 331.674 200.249 332.291 201.718C332.399 202.149 332.599 202.553 332.877 202.905L333.603 207L336.206 206.941L336.014 198.42C336.014 198.42 335.74 194.822 338.917 195.132C342.095 195.441 346.402 198.915 352.567 198.011C353.575 197.957 354.558 197.68 355.441 197.203C355.869 196.938 356.217 196.567 356.449 196.128C356.68 195.688 356.787 195.196 356.758 194.703C356.703 194.215 356.455 193.767 356.067 193.455C355.679 193.142 355.181 192.99 354.68 193.03Z" fill="#263238"/>
<path d="M333.916 202.084C333.783 202.041 329.564 201.52 329.975 206.399C330.385 211.279 335.277 209.242 335.277 209.104C335.276 208.967 333.916 202.084 333.916 202.084Z" fill="#B78876"/>
<path d="M333.613 207.499C333.613 207.499 333.525 207.56 333.384 207.638C333.187 207.74 332.956 207.765 332.74 207.708C332.403 207.535 332.119 207.277 331.916 206.962C331.714 206.646 331.601 206.284 331.588 205.912C331.537 205.497 331.584 205.076 331.726 204.681C331.759 204.525 331.831 204.378 331.935 204.255C332.039 204.132 332.173 204.035 332.324 203.974C332.422 203.94 332.529 203.942 332.626 203.978C332.722 204.014 332.803 204.082 332.854 204.17C332.934 204.299 332.907 204.394 332.934 204.402C332.96 204.411 333.04 204.316 332.977 204.118C332.943 203.997 332.864 203.893 332.756 203.826C332.685 203.781 332.605 203.75 332.522 203.736C332.438 203.721 332.353 203.723 332.27 203.741C332.059 203.798 331.867 203.907 331.712 204.059C331.558 204.21 331.447 204.398 331.39 204.605C331.211 205.041 331.149 205.516 331.209 205.982C331.22 206.416 331.362 206.836 331.617 207.191C331.872 207.546 332.23 207.819 332.644 207.975C332.781 208.003 332.923 208.001 333.059 207.968C333.195 207.934 333.321 207.872 333.429 207.784C333.614 207.611 333.631 207.508 333.613 207.499Z" fill="#A36957"/>
<path d="M321.964 313.472C324.622 317.312 340.739 340.836 359.857 323.643C384.211 301.761 403.464 282.597 403.464 282.597L410.839 325.746L433.566 324.477C433.566 324.477 424.561 260.226 418.915 254.397C412.64 247.889 406.889 248.457 357.864 286.419L321.964 313.472Z" fill="#455A64"/>
<path d="M403.062 240.04L424.25 224.865L425.295 226.489L404.249 241.844L403.062 240.04Z" fill="#263238"/>
<path d="M408.311 239.56C408.311 239.56 411.132 232.322 411.816 230.779C412.5 229.236 413.524 226.548 413.93 226.469C414.336 226.39 415.819 226.636 413.943 231.238C412.068 235.84 416.243 233.022 416.243 233.022L420.32 230.152C420.32 230.152 423.576 239.56 421.749 242.406C420.312 244.531 418.697 246.537 416.921 248.402L408.311 239.56Z" fill="#B78876"/>
<path d="M408.546 238.716C408.12 237.779 381.185 261.114 375.813 261.921L360.015 241.969C360.015 241.969 356.736 236.917 349.696 228.277C345.145 222.703 332.654 223.9 329.408 230.719C323.864 242.303 323.829 255.164 320.926 280.196L319.677 297.123C319.408 300.725 319.474 304.344 319.875 307.934C320.363 312.125 321.346 316.538 323.339 315.904L359.267 286.768L360.386 273.577C367.978 281.045 370.339 282.605 374.272 281.991C384.178 280.465 418.779 249.938 418.779 249.938C418.779 249.938 408.964 239.662 408.546 238.716Z" fill="#FC9256"/>
<path d="M414.141 254.178C413.436 253.767 412.786 253.275 412.204 252.711C410.725 251.43 409.338 250.05 408.054 248.582C406.762 247.12 405.578 245.57 404.511 243.944C404.037 243.289 403.635 242.586 403.314 241.847C403.85 242.449 404.339 243.089 404.775 243.763C405.661 244.957 406.901 246.589 408.397 248.289C409.893 249.989 411.344 251.448 412.424 252.478C413.036 253.005 413.61 253.573 414.141 254.178Z" fill="#263238"/>
<path d="M374.309 269.853C374.32 268.505 374.481 267.163 374.792 265.849C374.961 264.511 375.277 263.194 375.734 261.921C375.724 263.269 375.562 264.612 375.251 265.925C375.083 267.264 374.767 268.581 374.309 269.853Z" fill="#263238"/>
<path d="M377.748 269.017C377.2 267.924 376.793 266.769 376.538 265.578C376.145 264.426 375.89 263.234 375.778 262.025C376.326 263.118 376.733 264.273 376.988 265.464C377.38 266.616 377.635 267.809 377.748 269.017Z" fill="#263238"/>
<path d="M338.697 245.541C339.021 245.888 339.317 246.258 339.583 246.649L341.939 249.759C343.932 252.379 346.712 255.986 349.821 259.928L357.835 270.012L360.253 273.078C360.579 273.44 360.876 273.828 361.138 274.238C360.783 273.911 360.455 273.558 360.156 273.182C359.545 272.486 358.686 271.464 357.624 270.21C355.508 267.677 352.612 264.156 349.504 260.205C346.396 256.254 343.65 252.612 341.727 249.94C340.762 248.609 339.956 247.518 339.477 246.753C339.184 246.37 338.923 245.965 338.697 245.541Z" fill="#263238"/>
<path d="M334.139 262.564C333.204 262.05 332.35 261.409 331.601 260.66C330.752 260.015 329.998 259.258 329.363 258.411C330.302 258.924 331.16 259.568 331.909 260.323C332.761 260.959 333.513 261.714 334.139 262.564Z" fill="#263238"/>
<path d="M331.078 272.274C330.163 274.136 328.979 275.861 327.563 277.397C327.948 276.429 328.478 275.523 329.135 274.707C329.66 273.809 330.314 272.99 331.078 272.274Z" fill="#263238"/>
<path d="M335.457 285.647C335.36 285.725 334.573 284.952 333.688 283.93C333.091 283.348 332.605 282.667 332.252 281.92C332.349 281.842 333.137 282.615 334.022 283.637C334.62 284.218 335.106 284.898 335.457 285.647Z" fill="#263238"/>
<path d="M327.081 294.253C326.526 294.891 325.858 295.426 325.109 295.834C324.445 296.362 323.69 296.772 322.88 297.045C323.435 296.407 324.103 295.872 324.852 295.464C325.516 294.936 326.271 294.526 327.081 294.253Z" fill="#263238"/>
<path d="M338.832 296.492C337.896 296.097 337.084 295.467 336.48 294.665C335.762 293.948 335.251 293.059 334.999 292.087C335.122 292.026 335.77 293.161 336.823 294.354C337.876 295.548 338.911 296.38 338.832 296.492Z" fill="#263238"/>
<path d="M349.76 288.352C349.117 289.177 348.359 289.91 347.507 290.528C346.749 291.254 345.889 291.871 344.953 292.36C345.595 291.535 346.354 290.803 347.206 290.185C347.962 289.456 348.822 288.839 349.76 288.352Z" fill="#263238"/>
<path d="M327.268 304.074C325.758 303.403 324.557 302.211 323.896 300.726C324.002 300.657 324.666 301.482 325.595 302.392C326.524 303.301 327.347 303.988 327.268 304.074Z" fill="#263238"/>
<path d="M351.688 280.677C350.174 281.528 348.427 281.9 346.688 281.742C348.336 281.307 350.005 280.952 351.688 280.677Z" fill="#263238"/>
<path d="M343.509 271.653C343.33 272.703 343.037 273.731 342.636 274.72C342.351 275.715 342.009 276.693 341.611 277.65L341.514 277.65C341.514 277.598 341.567 277.581 341.585 277.581C341.602 277.581 341.585 277.581 341.585 277.676L341.488 277.676C341.589 276.642 341.817 275.624 342.168 274.644C342.434 273.579 342.888 272.567 343.509 271.653Z" fill="#263238"/>
<path d="M346.943 265.902C345.984 265.515 345.091 264.989 344.292 264.343C343.415 263.818 342.625 263.168 341.948 262.413C342.889 262.808 343.767 263.333 344.555 263.972C345.446 264.495 346.251 265.146 346.943 265.902Z" fill="#263238"/>
<path d="M339.849 253.268C339.584 254.123 339.142 254.915 338.549 255.596C338.074 256.358 337.445 257.019 336.702 257.538C337.095 256.743 337.591 256.001 338.178 255.33C338.637 254.572 339.199 253.879 339.849 253.268Z" fill="#263238"/>
<path d="M329.096 251.577C328.946 250.61 328.943 249.626 329.088 248.659C329.096 247.682 329.254 246.713 329.556 245.782C329.718 246.745 329.72 247.728 329.565 248.692C329.565 249.671 329.407 250.645 329.096 251.577Z" fill="#263238"/>
<path d="M324.958 270.561C324.716 269.531 324.618 268.475 324.667 267.419C324.575 266.37 324.631 265.312 324.835 264.277C325.182 266.355 325.223 268.471 324.958 270.561Z" fill="#263238"/>
<path d="M324.427 288.76C324.025 288.203 323.755 287.565 323.636 286.894C323.374 286.264 323.252 285.586 323.278 284.906C323.955 286.09 324.347 287.407 324.427 288.76Z" fill="#263238"/>
<path d="M339.142 237.354C338.444 238.14 337.685 238.873 336.872 239.547C336.168 240.329 335.4 241.054 334.575 241.714C335.051 240.761 335.725 239.915 336.553 239.229C337.272 238.434 338.154 237.795 339.142 237.354Z" fill="#263238"/>
<path d="M332.827 235.314C332.633 234.377 332.595 233.415 332.713 232.465C332.675 231.509 332.791 230.553 333.058 229.632C333.246 230.57 333.285 231.531 333.172 232.481C333.205 233.437 333.089 234.392 332.827 235.314Z" fill="#263238"/>
<path d="M348.281 233.222C346.619 232.248 345.014 231.187 343.471 230.042C345.33 230.677 346.988 231.773 348.281 233.222Z" fill="#263238"/>
<path d="M344.949 243.974C344.702 242.989 344.601 241.975 344.649 240.962C344.551 239.953 344.605 238.935 344.809 237.94C345.16 239.931 345.207 241.961 344.949 243.966L344.949 243.974Z" fill="#263238"/>
<path d="M354.02 250.233C352.239 249.892 350.471 249.483 348.722 249.008C350.574 248.893 352.418 249.319 354.02 250.233Z" fill="#263238"/>
<path d="M354.619 243.826C354.304 242.151 354.299 240.434 354.605 238.756C354.839 239.579 354.928 240.435 354.868 241.286C354.939 242.141 354.855 243.001 354.619 243.826Z" fill="#263238"/>
<path d="M361.55 254.558C361.266 253.518 361.136 252.443 361.162 251.366C361.038 250.297 361.064 249.217 361.241 248.155C361.644 250.265 361.748 252.42 361.55 254.558Z" fill="#263238"/>
<path d="M356.258 258.206C356.161 258.292 355.444 257.657 354.656 256.799C353.869 255.94 353.302 255.167 353.399 255.081C353.495 254.994 354.212 255.629 355 256.496C355.787 257.364 356.354 258.128 356.258 258.206Z" fill="#263238"/>
<path d="M362.978 263.145C362.146 263.424 361.273 263.566 360.393 263.566C359.518 263.717 358.622 263.72 357.746 263.573C358.572 263.285 359.444 263.143 360.322 263.153C361.199 262.99 362.099 262.988 362.978 263.145Z" fill="#263238"/>
<path d="M368.031 265.645C367.653 263.777 367.574 261.864 367.795 259.972C368.184 261.839 368.264 263.754 368.031 265.645Z" fill="#263238"/>
<path d="M373.035 275.056C371.978 275.257 370.891 275.26 369.832 275.065C368.756 275.027 367.698 274.788 366.715 274.36C367.778 274.352 368.838 274.442 369.884 274.626C370.946 274.668 372.002 274.812 373.035 275.056Z" fill="#263238"/>
<path d="M381.582 270.685C381.224 272.641 380.563 274.532 379.621 276.294C379.722 275.309 379.978 274.344 380.381 273.434C380.631 272.462 381.036 271.534 381.582 270.685Z" fill="#263238"/>
<path d="M387.729 263.058C385.894 262.876 384.103 262.395 382.43 261.636C384.263 261.829 386.053 262.309 387.729 263.058Z" fill="#263238"/>
<path d="M392.696 265.928C392.173 266.678 391.528 267.34 390.787 267.887C390.143 268.542 389.397 269.093 388.576 269.521C389.094 268.764 389.74 268.098 390.486 267.552C391.129 266.9 391.875 266.351 392.696 265.928Z" fill="#263238"/>
<path d="M394.661 258.803C394.171 257.954 393.867 257.013 393.771 256.043C393.515 255.093 393.47 254.101 393.639 253.134C393.923 254.057 394.118 255.005 394.221 255.964C394.459 256.895 394.606 257.846 394.661 258.803Z" fill="#263238"/>
<path d="M404.098 257.141C402.288 258.914 400.458 260.667 398.607 262.399C400.003 260.261 401.881 258.463 404.098 257.141Z" fill="#263238"/>
<path d="M405.024 253.842C404.011 253.705 403.025 253.418 402.101 252.989C401.121 252.711 400.192 252.287 399.345 251.732C400.354 251.872 401.337 252.159 402.259 252.584C403.239 252.868 404.171 253.292 405.024 253.842Z" fill="#263238"/>
<path d="M404.114 250.306C403.664 249.593 403.347 248.807 403.181 247.985C402.87 247.202 402.704 246.372 402.689 245.533C403.124 246.249 403.425 247.035 403.578 247.855C403.899 248.636 404.08 249.465 404.114 250.306Z" fill="#263238"/>
<path d="M354.788 275.245C354.682 275.323 353.903 274.473 353.124 273.356C352.563 272.722 352.124 271.994 351.829 271.208C352.495 271.736 353.058 272.376 353.493 273.097C354.047 273.736 354.484 274.463 354.788 275.245Z" fill="#263238"/>
<path d="M422.184 318.423C422.146 318.303 422.122 318.178 422.112 318.053C422.076 317.795 422.022 317.433 421.95 316.969C421.824 315.996 421.626 314.594 421.383 312.804C420.869 309.19 420.14 303.95 419.054 297.506C417.968 291.061 416.526 283.413 414.482 275.017C414.272 273.963 413.916 272.941 413.423 271.981C412.866 271.034 412.147 270.186 411.298 269.474C409.497 268.027 407.197 267.307 404.869 267.46C403.681 267.528 402.521 267.839 401.465 268.374C400.404 268.961 399.394 269.632 398.444 270.379L392.386 274.795C384.231 280.801 376.598 286.684 369.783 292.204C362.969 297.724 357.028 302.888 352.054 307.267C349.537 309.391 346.85 311.095 344.124 311.378C342.874 311.52 341.607 311.373 340.426 310.949C339.443 310.591 338.518 310.098 337.677 309.485C336.528 308.637 335.461 307.686 334.493 306.645L333.74 305.838C333.649 305.748 333.566 305.65 333.493 305.546C333.594 305.62 333.686 305.707 333.767 305.803L334.554 306.584C335.55 307.591 336.63 308.515 337.783 309.347C338.619 309.931 339.531 310.404 340.496 310.751C341.65 311.147 342.883 311.277 344.097 311.128C346.744 310.837 349.386 309.151 351.851 307.026C356.789 302.631 362.712 297.406 369.527 291.886C376.341 286.367 383.957 280.44 392.12 274.434L398.178 270.018C399.151 269.258 400.185 268.576 401.27 267.978C402.38 267.415 403.6 267.089 404.85 267.021C407.292 266.864 409.703 267.624 411.588 269.146C412.482 269.891 413.234 270.783 413.811 271.782C414.319 272.775 414.687 273.831 414.905 274.921C416.932 283.343 418.33 291.008 419.38 297.453C420.431 303.897 421.107 309.155 421.568 312.778C421.776 314.576 421.939 315.979 422.056 316.96C422.057 317.425 422.138 317.82 422.165 318.053C422.183 318.175 422.189 318.299 422.184 318.423Z" fill="#263238"/>
<path d="M432.489 317.912C432.203 317.999 431.906 318.046 431.607 318.052C431.033 318.114 430.204 318.185 429.181 318.257C427.125 318.4 424.293 318.555 421.161 318.693L413.141 319.051L410.706 319.144C410.413 319.178 410.117 319.179 409.823 319.146C410.108 319.054 410.405 319.001 410.705 318.989C411.279 318.919 412.108 318.839 413.131 318.75C415.187 318.58 418.019 318.409 421.151 318.262L429.18 317.956L431.615 317.897C431.906 317.867 432.199 317.872 432.489 317.912Z" fill="#263238"/>
<path d="M409.754 275.848C407.754 279.044 405.144 281.836 402.065 284.073C401.977 283.97 403.825 282.286 405.972 280.016C408.118 277.746 409.622 275.771 409.754 275.848Z" fill="#263238"/>
<path d="M410.618 278.462C409.43 279.352 408.176 280.152 406.865 280.857C405.634 281.697 404.338 282.443 402.989 283.089C404.078 282.075 405.298 281.204 406.617 280.497C407.855 279.653 409.2 278.97 410.618 278.462Z" fill="#263238"/>
<path d="M485.077 319.985C484.898 320.004 484.717 320.005 484.539 319.986L482.985 319.904L477.336 319.395L458.721 317.554C451.448 316.834 444.881 316.026 440.107 315.807C437.724 315.693 435.783 315.708 434.45 315.763L432.915 315.828C432.734 315.85 432.55 315.851 432.368 315.829C432.545 315.786 432.725 315.757 432.906 315.741C433.25 315.689 433.788 315.644 434.441 315.582C436.332 315.456 438.229 315.425 440.123 315.489C444.924 315.63 451.5 316.386 458.764 317.106L477.38 319.059L483.02 319.706L484.547 319.9C484.726 319.908 484.904 319.936 485.077 319.985Z" fill="#455A64"/>
<path d="M483.984 329.611C483.86 329.612 484.245 325.307 484.839 319.959C485.433 314.612 486.038 310.349 486.162 310.366C486.285 310.383 485.9 314.671 485.307 320.01C484.713 325.348 484.107 329.62 483.984 329.611Z" fill="#455A64"/>
</svg>
