<svg width="453" height="427" viewBox="0 0 453 427" fill="none" xmlns="http://www.w3.org/2000/svg">
<path d="M303.834 309.856C302.469 308.343 305.687 299.508 320.959 298.883C336.23 298.257 342.348 303.818 342.37 309.856C342.382 312.528 303.834 309.856 303.834 309.856Z" fill="#626585"/>
<path d="M296.295 78.7054L279.329 183.626H434.271L452.942 77.5797L296.295 78.7054Z" fill="#F5F5F5"/>
<path d="M294.748 88.2457C294.817 87.8819 451.168 87.6544 451.168 87.6544L452.942 77.5797L296.295 78.7168L294.748 88.2685" fill="#E0E0E0"/>
<path d="M302.845 83.4244C302.847 83.7105 302.764 83.9908 302.607 84.2298C302.45 84.4687 302.225 84.6556 301.961 84.7666C301.697 84.8777 301.407 84.9079 301.126 84.8535C300.845 84.7991 300.587 84.6624 300.383 84.4609C300.18 84.2594 300.042 84.0021 299.985 83.7217C299.928 83.4413 299.956 83.1503 300.065 82.8858C300.174 82.6212 300.359 82.395 300.597 82.2358C300.835 82.0766 301.114 81.9916 301.401 81.9916C301.59 81.9901 301.777 82.0261 301.952 82.0974C302.127 82.1687 302.287 82.274 302.421 82.4072C302.555 82.5404 302.662 82.6989 302.734 82.8734C302.807 83.048 302.845 83.2353 302.845 83.4244Z" fill="#01051A"/>
<path d="M309.895 83.4244C309.895 83.7078 309.811 83.9848 309.653 84.2204C309.496 84.4561 309.272 84.6397 309.01 84.7481C308.748 84.8566 308.46 84.8849 308.182 84.8297C307.904 84.7744 307.649 84.6379 307.449 84.4376C307.248 84.2372 307.112 83.9819 307.057 83.704C307.001 83.426 307.03 83.138 307.138 82.8762C307.247 82.6144 307.43 82.3906 307.666 82.2332C307.902 82.0757 308.179 81.9917 308.462 81.9917C308.842 81.9917 309.206 82.1427 309.475 82.4113C309.744 82.68 309.895 83.0445 309.895 83.4244Z" fill="#01051A"/>
<path d="M316.956 83.4244C316.958 83.7105 316.876 83.9908 316.718 84.2298C316.561 84.4687 316.336 84.6556 316.073 84.7666C315.809 84.8777 315.518 84.9079 315.237 84.8535C314.956 84.7991 314.698 84.6624 314.495 84.4609C314.292 84.2594 314.153 84.0021 314.096 83.7217C314.04 83.4413 314.068 83.1503 314.177 82.8858C314.286 82.6212 314.471 82.395 314.708 82.2358C314.946 82.0766 315.226 81.9916 315.512 81.9916C315.701 81.9901 315.889 82.0261 316.064 82.0974C316.239 82.1687 316.398 82.274 316.532 82.4072C316.667 82.5404 316.773 82.6989 316.846 82.8734C316.919 83.048 316.956 83.2353 316.956 83.4244Z" fill="#01051A"/>
<path d="M334.456 135.379L315.068 157.802C311.408 155.318 308.4 151.989 306.299 148.095C304.199 144.201 303.069 139.859 303.004 135.435C303.004 119.846 317.206 107.008 334.456 107.008C351.706 107.008 365.908 119.834 365.908 135.435L334.456 135.379Z" fill="#FC9256"/>
<path d="M336.946 138.938C336.852 139.096 336.741 139.245 336.617 139.381L335.605 140.587L331.761 145.135C328.418 149.047 323.665 154.573 317.968 161.225V160.861C322.263 163.818 327.226 165.662 332.409 166.228C338.261 166.903 344.188 166.008 349.58 163.636C354.726 161.4 359.17 157.813 362.44 153.254C363.914 151.128 365.095 148.814 365.954 146.374C366.703 144.095 367.158 141.73 367.307 139.336L367.557 139.597L345.384 139.222L339.152 139.086L337.504 139.029C337.311 139.047 337.116 139.047 336.924 139.029C337.105 139.011 337.288 139.011 337.469 139.029H339.095H345.293L367.557 139.177H367.83V139.449C367.701 141.897 367.25 144.317 366.488 146.647C365.625 149.14 364.427 151.504 362.929 153.675C359.599 158.355 355.048 162.032 349.773 164.307C344.281 166.709 338.25 167.612 332.296 166.922C327.024 166.323 321.983 164.424 317.627 161.396L317.4 161.236L317.581 161.02L331.613 145.021L335.536 140.587L336.582 139.449C336.689 139.269 336.81 139.097 336.946 138.938Z" fill="#01051A"/>
<path d="M347.828 120.255C348.802 120.255 349.591 119.466 349.591 118.493C349.591 117.519 348.802 116.73 347.828 116.73C346.855 116.73 346.066 117.519 346.066 118.493C346.066 119.466 346.855 120.255 347.828 120.255Z" fill="#01051A"/>
<path d="M384.602 105.598C384.053 105.683 383.498 105.721 382.942 105.712L378.394 105.803C374.584 105.803 369.297 105.894 363.509 105.894H360.734L360.939 105.814C357.289 109.453 354.037 112.637 351.683 114.911L348.897 117.572C348.579 117.917 348.22 118.223 347.828 118.481C348.104 118.103 348.413 117.749 348.749 117.424C349.443 116.685 350.341 115.752 351.41 114.638C353.684 112.284 356.891 109.032 360.507 105.37L360.587 105.291H363.577C369.388 105.291 374.653 105.291 378.462 105.37L383.01 105.473C383.544 105.464 384.077 105.506 384.602 105.598Z" fill="#01051A"/>
<path d="M424.537 127.749C424.545 127.546 424.571 127.344 424.617 127.146C424.685 126.737 424.776 126.179 424.901 125.463L426.038 119.107L430.143 96.2964L430.382 96.5807L386.342 96.6375L386.626 96.3987V96.5125V96.6489V96.9104L386.524 97.4335L386.331 98.491L385.944 100.583C385.682 101.971 385.432 103.346 385.171 104.711C384.67 107.44 384.174 110.124 383.681 112.762C382.692 118.015 381.748 122.996 380.873 127.783L380.6 127.464L412.325 127.589L421.422 127.669H423.844H424.469H424.696H424.503H423.9H421.524L412.518 127.737L380.679 127.862H380.361L380.418 127.544C381.293 122.802 382.214 117.765 383.192 112.5C383.67 109.873 384.17 107.19 384.67 104.461C384.932 103.085 385.182 101.709 385.444 100.322C385.569 99.6281 385.694 98.9345 385.83 98.2295L386.024 97.1833L386.115 96.6603L386.171 96.3874V96.2623V96.1599L386.467 95.9098L430.507 95.9666H430.666L430.609 96.2509C428.79 105.768 427.289 113.626 426.243 119.141C425.708 121.836 425.299 123.951 425.003 125.44L424.674 127.066C424.583 127.578 424.537 127.76 424.537 127.749Z" fill="#01051A"/>
<path d="M350.592 155.71C351.565 155.71 352.354 154.921 352.354 153.948C352.354 152.974 351.565 152.185 350.592 152.185C349.618 152.185 348.829 152.974 348.829 153.948C348.829 154.921 349.618 155.71 350.592 155.71Z" fill="#01051A"/>
<path d="M382.59 153.947C382.59 154.118 375.426 154.243 366.591 154.243C357.755 154.243 350.591 154.118 350.591 153.947C350.591 153.777 357.755 153.652 366.591 153.652C375.426 153.652 382.59 153.788 382.59 153.947Z" fill="#01051A"/>
<path d="M424.537 167.684C424.551 167.538 424.578 167.393 424.617 167.252C424.685 166.945 424.776 166.535 424.901 166.024C425.163 164.886 425.538 163.374 426.038 161.396C427.028 157.37 428.438 151.628 430.177 144.566L430.393 144.839L384.978 144.908L385.262 144.692V144.76V144.851V145.044L385.159 145.431L384.966 146.181L384.591 147.705C384.329 148.706 384.079 149.706 383.829 150.707L382.214 156.665C381.236 160.52 380.293 164.25 379.383 167.809L379.121 167.468L411.699 167.593L421.115 167.661H423.639H424.299H424.537H424.333H423.696H421.228L411.859 167.729L379.121 167.854H378.758L378.849 167.502C379.747 163.943 380.679 160.202 381.646 156.347C382.131 154.414 382.628 152.454 383.135 150.468L383.886 147.466L384.273 145.954L384.466 145.192L384.557 144.805V144.623V144.521V144.453L384.841 144.225L430.257 144.305H430.666L430.598 144.578C428.756 151.673 427.266 157.438 426.22 161.475C425.697 163.42 425.288 164.955 425.004 166.024C424.867 166.513 424.765 166.899 424.685 167.161C424.606 167.422 424.537 167.695 424.537 167.684Z" fill="#01051A"/>
<path d="M420.955 105.996C420.955 106.166 414.212 106.291 405.889 106.291C397.565 106.291 390.822 106.166 390.822 105.996C390.822 105.825 397.565 105.7 405.889 105.7C414.212 105.7 420.955 105.837 420.955 105.996Z" fill="#01051A"/>
<path d="M420.603 110.931C420.603 111.101 413.78 111.227 405.457 111.227C397.133 111.227 390.299 111.101 390.299 110.931C390.299 110.76 397.122 110.635 405.457 110.635C413.792 110.635 420.603 110.772 420.603 110.931Z" fill="#01051A"/>
<path d="M419.727 115.729C419.727 115.889 413.178 116.025 405.104 116.025C397.031 116.025 390.47 115.889 390.47 115.729C390.47 115.57 397.019 115.434 405.104 115.434C413.189 115.434 419.727 115.525 419.727 115.729Z" fill="#01051A"/>
<path d="M420.25 153.402C420.25 153.561 413.826 153.697 405.889 153.697C397.952 153.697 391.527 153.561 391.527 153.402C391.527 153.243 397.963 153.106 405.889 153.106C413.814 153.106 420.25 153.254 420.25 153.402Z" fill="#01051A"/>
<path d="M418.488 158.86C418.488 159.03 413.007 159.156 406.241 159.156C399.476 159.156 393.995 159.03 393.995 158.86C393.995 158.689 399.476 158.564 406.241 158.564C413.007 158.564 418.488 158.701 418.488 158.86Z" fill="#01051A"/>
<path d="M235.471 273.104C234.925 276.3 219.756 309.867 229.547 309.867H278.761C278.761 309.867 273.678 305.091 289.063 273.104H235.471Z" fill="#626585"/>
<path d="M203.632 161.066L183.517 278.619H353.184L373.993 156.938L203.632 161.066Z" fill="#626585"/>
<path d="M209.398 166.797L192.443 271.729H347.374L366.045 165.682L209.398 166.797Z" fill="#FAFAFA"/>
<path d="M373.993 156.938L377.2 159.099L355.595 281.815H187.997L183.517 278.619H353.184L373.993 156.938Z" fill="#01051A"/>
<path d="M207.862 176.348C207.919 175.973 364.271 175.757 364.271 175.757L366.045 165.682L209.398 166.819L207.862 176.371" fill="#EBEBEB"/>
<path d="M322.96 262.416V262.12L323.096 261.245C323.24 260.411 323.434 259.274 323.676 257.833C324.211 254.775 324.961 250.385 325.894 244.939C327.827 233.909 330.522 218.558 333.58 201.137V200.887H346.384L346.327 201.24C341.586 226.927 337.435 249.498 335.036 262.473V262.609H334.911L325.996 262.518H323.722H323.165H323.779H326.132L334.945 262.427L334.786 262.552L345.793 201.274L346.089 201.615H333.899L334.183 201.376C331.033 218.694 328.27 233.943 326.223 244.916C325.223 250.374 324.404 254.775 323.835 257.845C323.551 259.334 323.335 260.506 323.176 261.347C323.096 261.722 323.039 262.029 322.994 262.257C322.985 262.31 322.973 262.363 322.96 262.416Z" fill="#01051A"/>
<path d="M303.311 262.416C303.326 262.139 303.368 261.865 303.436 261.597C303.538 260.994 303.686 260.187 303.868 259.164C304.277 256.969 304.846 253.865 305.562 250.067C307.052 242.187 309.133 231.225 311.509 218.694V218.455H324.313L324.245 218.808C320.652 236.626 317.422 252.466 315.421 262.507V262.654H315.273L306.37 262.552H304.095C303.842 262.569 303.587 262.569 303.334 262.552H304.175H306.54L315.319 262.45L315.137 262.598C317.115 252.546 320.231 236.694 323.733 218.853L324.017 219.206H311.759L312.044 218.978C309.576 231.396 307.416 242.266 305.858 250.078C305.073 253.956 304.448 257.071 303.993 259.266L303.481 261.756C303.481 262.018 303.368 262.234 303.334 262.404L303.311 262.416Z" fill="#01051A"/>
<path d="M283.582 262.416C283.572 262.295 283.572 262.173 283.582 262.052L283.764 260.915C283.935 259.914 284.173 258.481 284.492 256.639C285.151 252.875 286.095 247.451 287.278 240.72C289.688 227.075 293.043 208.187 296.841 186.776V186.537H309.644L309.588 186.878C303.652 219.388 298.41 247.713 295.635 262.416V262.541H295.51L286.561 262.45H284.287H283.537H284.344H286.675L295.522 262.37L295.385 262.484C297.978 247.702 303.095 219.399 309.03 186.901L309.326 187.253H297.17L297.455 187.003C293.577 208.301 290.143 227.131 287.664 240.674C286.413 247.429 285.39 252.875 284.708 256.651L283.889 260.983C283.798 261.461 283.73 261.836 283.673 262.12L283.582 262.416Z" fill="#01051A"/>
<path d="M263.887 262.416C263.896 262.225 263.919 262.035 263.956 261.847C264.035 261.404 264.126 260.846 264.24 260.141C264.501 258.572 264.877 256.389 265.377 253.671C266.366 248.043 267.742 240.231 269.323 231.202V230.963H282.115L282.047 231.316C279.693 243.597 277.578 254.649 276.077 262.461V262.632H275.918L267.049 262.518L264.649 262.416C264.388 262.432 264.126 262.432 263.865 262.416H264.729H267.128L275.861 262.302L275.656 262.461C277.112 254.649 279.17 243.574 281.444 231.282L281.74 231.634H269.562L269.834 231.407C268.152 240.333 266.707 248.054 265.65 253.614C265.127 256.344 264.695 258.549 264.388 260.13C264.24 260.846 264.126 261.438 264.035 261.881C263.996 262.062 263.947 262.241 263.887 262.416Z" fill="#01051A"/>
<path d="M244.181 262.416C244.181 262.416 244.181 262.336 244.181 262.177C244.181 262.018 244.181 261.734 244.284 261.438C244.398 260.744 244.545 259.789 244.739 258.561C245.159 256.002 245.751 252.341 246.49 247.793C248.036 238.537 250.174 225.665 252.619 211.007V210.769H265.423L265.354 211.121C261.602 232.305 258.293 251.033 256.258 262.45V262.598H256.121L247.229 262.495H244.898C244.644 262.512 244.39 262.512 244.136 262.495H244.352H244.966H247.331L256.121 262.404L255.951 262.541L264.797 211.167L265.093 211.519H252.96L253.244 211.28C250.708 225.835 248.48 238.571 246.876 247.793C246.058 252.341 245.41 256.037 244.943 258.618C244.716 259.857 244.545 260.892 244.409 261.54L244.261 262.313L244.181 262.416Z" fill="#01051A"/>
<path d="M224.51 262.416C224.495 262.306 224.495 262.195 224.51 262.086C224.51 261.836 224.601 261.506 224.669 261.085C224.828 260.164 225.044 258.811 225.328 257.174C225.908 253.762 226.761 248.771 227.807 242.607C229.968 230.156 232.981 212.827 236.392 193.212V192.973H249.196L249.139 193.325C243.84 222.799 239.155 248.566 236.574 262.45V262.575H236.449L227.523 262.484H225.249H224.703H225.306H227.637L236.472 262.393L236.324 262.518C238.735 248.6 243.306 222.81 248.605 193.348L248.889 193.689H236.711L236.995 193.45C233.504 212.963 230.411 230.19 228.194 242.573C227.057 248.759 226.158 253.728 225.522 257.185C225.215 258.891 224.964 260.21 224.794 261.154C224.703 261.586 224.646 261.927 224.589 262.188C224.532 262.45 224.51 262.416 224.51 262.416Z" fill="#01051A"/>
<path d="M215.947 171.527C215.949 171.813 215.867 172.094 215.709 172.332C215.552 172.571 215.327 172.758 215.064 172.869C214.8 172.98 214.509 173.011 214.228 172.956C213.948 172.902 213.689 172.765 213.486 172.564C213.283 172.362 213.144 172.105 213.088 171.824C213.031 171.544 213.059 171.253 213.168 170.988C213.277 170.724 213.462 170.498 213.7 170.339C213.937 170.179 214.217 170.094 214.503 170.094C214.884 170.094 215.25 170.245 215.52 170.513C215.791 170.782 215.944 171.146 215.947 171.527Z" fill="#01051A"/>
<path d="M221.564 172.96C222.356 172.96 222.997 172.318 222.997 171.527C222.997 170.736 222.356 170.094 221.564 170.094C220.773 170.094 220.132 170.736 220.132 171.527C220.132 172.318 220.773 172.96 221.564 172.96Z" fill="#01051A"/>
<path d="M230.059 171.527C230.061 171.814 229.978 172.094 229.82 172.334C229.662 172.573 229.437 172.76 229.172 172.87C228.908 172.981 228.617 173.011 228.336 172.955C228.054 172.9 227.796 172.762 227.593 172.56C227.391 172.357 227.253 172.099 227.198 171.817C227.142 171.536 227.172 171.245 227.283 170.981C227.393 170.716 227.58 170.491 227.819 170.333C228.059 170.175 228.339 170.092 228.626 170.094C229.005 170.097 229.368 170.249 229.636 170.517C229.904 170.785 230.056 171.148 230.059 171.527Z" fill="#01051A"/>
<path d="M204.815 262.416C204.815 262.416 204.815 262.12 204.94 261.54C205.065 260.96 205.179 260.05 205.361 258.959C205.759 256.685 206.316 253.353 207.01 249.271C208.465 240.924 210.478 229.326 212.786 216.09V215.851H225.59L225.522 216.204C222.008 235.148 218.881 251.954 216.936 262.461V262.609H216.8L207.896 262.507H205.622C205.365 262.523 205.107 262.523 204.849 262.507H205.076H205.69H208.056L216.845 262.404L216.664 262.552L225.021 216.261L225.306 216.602H213.07L213.355 216.363C210.955 229.497 208.806 241.004 207.351 249.271C206.577 253.376 205.963 256.685 205.52 259.004C205.315 260.141 205.145 261.006 205.02 261.642L204.883 262.336C204.862 262.364 204.839 262.39 204.815 262.416Z" fill="#01051A"/>
<path d="M337.731 216.147H272.825L276.532 194.36H341.893L337.731 216.147Z" fill="#FC9256"/>
<path d="M272.825 216.147L271.563 223.754C271.563 223.754 280.091 215.851 279.955 215.851H272.882" fill="#FC9256"/>
<path d="M332.102 201.933C332.102 202.093 321.288 202.229 307.962 202.229C294.635 202.229 283.81 202.093 283.81 201.933C283.81 201.774 294.623 201.638 307.962 201.638C321.3 201.638 332.102 201.774 332.102 201.933Z" fill="#FAFAFA"/>
<path d="M331.465 207.198C331.465 207.357 320.652 207.494 307.325 207.494C293.998 207.494 283.173 207.357 283.173 207.198C283.173 207.039 293.987 206.902 307.325 206.902C320.663 206.902 331.465 207.027 331.465 207.198Z" fill="#FAFAFA"/>
<path d="M437.625 317.395H252.71V425.294H437.625V317.395Z" fill="#01051A"/>
<path d="M336.946 317.395H252.71V425.294H336.946V317.395Z" fill="#626585"/>
<path d="M328.327 354.044C328.327 354.044 328.327 353.85 328.327 353.498C328.327 353.145 328.327 352.599 328.327 351.929C328.327 350.53 328.327 348.517 328.27 345.936C328.27 340.751 328.213 333.28 328.156 324.07L328.372 324.286L260.612 324.365C260.351 324.638 260.965 324.013 260.908 324.081V331.881C260.908 334.463 260.908 337.01 260.908 339.511C260.908 344.526 260.908 349.393 260.908 354.044L260.635 353.771L309.201 353.896L323.29 353.975H327.065H328.054H328.395C328.293 353.986 328.19 353.986 328.088 353.975H327.133H323.415L309.394 354.055L260.635 354.191H260.351V353.907C260.351 349.256 260.351 344.39 260.351 339.375V324.081C260.283 324.081 260.908 323.512 260.647 323.774L328.327 323.819H328.543V324.024C328.543 333.291 328.452 340.796 328.429 346.027C328.429 348.585 328.429 350.575 328.372 351.963C328.372 352.611 328.372 353.1 328.372 353.498C328.371 353.681 328.355 353.863 328.327 354.044Z" fill="#01051A"/>
<path d="M297.364 339.057C297.364 339.057 297.296 338.806 297.159 338.386C296.969 337.804 296.599 337.298 296.102 336.942C295.743 336.682 295.326 336.516 294.887 336.458C294.448 336.401 294.002 336.453 293.589 336.612C293.089 336.798 292.658 337.133 292.354 337.571C292.05 338.009 291.887 338.529 291.887 339.062C291.887 339.595 292.05 340.116 292.354 340.554C292.658 340.992 293.089 341.326 293.589 341.513C294.003 341.665 294.448 341.715 294.886 341.657C295.323 341.6 295.741 341.437 296.102 341.183C296.599 340.826 296.969 340.32 297.159 339.739C297.296 339.318 297.307 339.057 297.364 339.057C297.421 339.057 297.455 339.318 297.364 339.796C297.232 340.472 296.866 341.08 296.329 341.513C295.923 341.843 295.439 342.063 294.923 342.153C294.408 342.242 293.878 342.198 293.384 342.024C292.77 341.809 292.238 341.409 291.861 340.878C291.485 340.348 291.282 339.713 291.282 339.062C291.282 338.412 291.485 337.777 291.861 337.246C292.238 336.716 292.77 336.315 293.384 336.1C293.877 335.928 294.406 335.884 294.921 335.971C295.436 336.059 295.92 336.275 296.329 336.6C296.867 337.036 297.234 337.649 297.364 338.329C297.455 338.806 297.398 339.068 297.364 339.057Z" fill="#01051A"/>
<path d="M328.327 387.042C328.327 387.042 328.327 386.849 328.327 386.497C328.327 386.144 328.327 385.587 328.327 384.916C328.327 383.517 328.327 381.505 328.27 378.935C328.27 373.738 328.213 366.279 328.157 357.068L328.373 357.284L260.613 357.364L260.908 357.068V364.857C260.908 367.439 260.908 369.974 260.908 372.487C260.908 377.502 260.908 382.357 260.908 387.02L260.635 386.735L309.201 386.872L323.29 386.951H327.065H328.054C328.168 386.942 328.282 386.942 328.395 386.951H328.088H327.133H323.415L309.394 387.031L260.635 387.167H260.351V386.883C260.351 382.221 260.351 377.366 260.351 372.351V357.091L260.647 356.795L328.407 356.875H328.623V357.091C328.623 366.358 328.532 373.863 328.509 379.083C328.509 381.641 328.509 383.631 328.452 385.03C328.452 385.678 328.452 386.167 328.452 386.553C328.421 386.719 328.379 386.882 328.327 387.042Z" fill="#01051A"/>
<path d="M297.364 372.055C297.364 372.055 297.296 371.794 297.159 371.373C296.969 370.792 296.599 370.286 296.102 369.929C295.741 369.675 295.323 369.512 294.886 369.455C294.448 369.397 294.003 369.447 293.589 369.599C293.089 369.786 292.658 370.12 292.354 370.558C292.05 370.996 291.887 371.517 291.887 372.05C291.887 372.583 292.05 373.103 292.354 373.541C292.658 373.979 293.089 374.314 293.589 374.5C294.001 374.657 294.447 374.71 294.885 374.655C295.323 374.599 295.741 374.437 296.102 374.182C296.602 373.823 296.973 373.313 297.159 372.726C297.296 372.306 297.307 372.055 297.364 372.055C297.421 372.055 297.455 372.317 297.364 372.783C297.236 373.464 296.869 374.077 296.329 374.512C295.922 374.84 295.437 375.058 294.922 375.146C294.406 375.233 293.877 375.187 293.384 375.012C292.77 374.797 292.238 374.396 291.861 373.866C291.485 373.335 291.282 372.7 291.282 372.05C291.282 371.399 291.485 370.765 291.861 370.234C292.238 369.703 292.77 369.303 293.384 369.088C293.878 368.914 294.408 368.87 294.923 368.959C295.439 369.049 295.923 369.269 296.329 369.599C296.869 370.034 297.236 370.647 297.364 371.328C297.455 371.794 297.398 372.055 297.364 372.055Z" fill="#01051A"/>
<path d="M328.327 420.03C328.327 420.03 328.327 419.836 328.327 419.484C328.327 419.131 328.327 418.586 328.327 417.915C328.327 416.516 328.327 414.503 328.27 411.922C328.27 406.737 328.213 399.266 328.156 390.056L328.372 390.272L260.612 390.351C260.351 390.624 260.965 389.999 260.908 390.067V397.868C260.908 400.449 260.908 402.996 260.908 405.498C260.908 410.512 260.908 415.379 260.908 420.03L260.635 419.757L309.201 419.882L323.29 419.961H327.065H328.054H328.395C328.293 419.972 328.19 419.972 328.088 419.961H327.133H323.415L309.394 420.03L260.635 420.166H260.351V419.882C260.351 415.231 260.351 410.364 260.351 405.35V390.067C260.283 390.124 260.908 389.498 260.647 389.76L328.407 389.851H328.623V390.056C328.623 399.323 328.532 406.839 328.509 412.059C328.509 414.617 328.509 416.607 328.452 417.994C328.452 418.654 328.452 419.131 328.452 419.529C328.422 419.699 328.38 419.866 328.327 420.03Z" fill="#01051A"/>
<path d="M297.364 405.043C297.364 405.043 297.296 404.793 297.159 404.372C296.969 403.79 296.599 403.284 296.102 402.928C295.742 402.671 295.324 402.506 294.886 402.449C294.448 402.391 294.002 402.443 293.589 402.598C293.089 402.784 292.658 403.119 292.354 403.557C292.05 403.995 291.887 404.515 291.887 405.048C291.887 405.582 292.05 406.102 292.354 406.54C292.658 406.978 293.089 407.313 293.589 407.499C294.002 407.654 294.448 407.705 294.886 407.648C295.324 407.59 295.742 407.426 296.102 407.169C296.599 406.812 296.969 406.307 297.159 405.725C297.296 405.304 297.307 405.043 297.364 405.043C297.421 405.043 297.455 405.304 297.364 405.782C297.231 406.461 296.865 407.072 296.329 407.51C295.92 407.836 295.436 408.052 294.921 408.14C294.406 408.227 293.877 408.183 293.384 408.011C292.77 407.796 292.238 407.395 291.861 406.864C291.485 406.334 291.282 405.699 291.282 405.048C291.282 404.398 291.485 403.763 291.861 403.232C292.238 402.702 292.77 402.301 293.384 402.086C293.877 401.914 294.406 401.87 294.921 401.957C295.436 402.045 295.92 402.261 296.329 402.587C296.867 403.022 297.234 403.635 297.364 404.315C297.455 404.793 297.398 405.054 297.364 405.043Z" fill="#01051A"/>
<path d="M161.514 317.395H5.96979V425.294H161.514V317.395Z" fill="#01051A"/>
<path d="M444.323 309.867H0V320.124H444.323V309.867Z" fill="#01051A"/>
<path d="M19.7515 320.124H5.96979V425.294H19.7515V320.124Z" fill="#626585"/>
<path d="M178.718 147.568C178.627 147.137 178.562 146.7 178.525 146.261C178.36 145.092 177.974 143.965 177.388 142.94C177.008 142.254 176.43 141.699 175.728 141.348C175.332 141.179 174.895 141.13 174.472 141.209C174.049 141.288 173.659 141.491 173.351 141.792C172.034 143.427 171.316 145.463 171.316 147.563C171.316 149.662 172.034 151.699 173.351 153.334C173.658 153.637 174.047 153.842 174.47 153.923C174.894 154.004 175.331 153.957 175.728 153.788C176.428 153.43 177.006 152.872 177.388 152.185C177.974 151.16 178.36 150.033 178.525 148.865C178.562 148.429 178.626 147.996 178.718 147.568C178.792 148.009 178.792 148.458 178.718 148.899C178.642 150.123 178.305 151.318 177.729 152.401C177.318 153.182 176.68 153.821 175.898 154.232C175.435 154.454 174.916 154.529 174.409 154.448C173.879 154.344 173.386 154.105 172.976 153.754C171.508 152.027 170.702 149.835 170.702 147.568C170.702 145.302 171.508 143.109 172.976 141.383C173.382 141.024 173.877 140.781 174.409 140.678C174.916 140.602 175.434 140.677 175.898 140.894C176.68 141.305 177.318 141.943 177.729 142.724C178.307 143.811 178.644 145.009 178.718 146.238C178.791 146.678 178.791 147.128 178.718 147.568Z" fill="#01051A"/>
<path d="M129.63 125.338L126.218 193.473L155.487 196.225L157.102 179.68C157.102 179.68 167.336 182.227 170.52 172.71C172.51 166.626 174.284 118.993 174.284 118.993L129.63 125.338Z" fill="#FFBE9D"/>
<path d="M180.504 126.02C178.013 131.945 168.621 137.027 168.621 137.027L167.086 152.117C165.689 152.02 164.287 152.02 162.89 152.117C163.64 145.033 154.532 146.431 153.6 151.241C152.713 155.881 158 158.985 158 158.985C154.35 164.579 152.872 167.536 147.687 172.778C142.092 178.463 139.079 178.918 133.291 178.748L126.912 178.452C126.912 178.452 124.638 173.005 122.989 160.145C122.182 153.959 117.304 145.851 118.725 135.788C122.637 107.213 154.259 112.284 154.259 112.284C166.131 103.051 186.371 112.091 180.504 126.02Z" fill="#01051A"/>
<path d="M178.718 147.648C176.56 148.064 174.367 148.277 172.169 148.285C169.982 148.479 167.783 148.479 165.596 148.285C167.752 147.876 169.941 147.666 172.135 147.659C174.325 147.465 176.528 147.461 178.718 147.648Z" fill="#01051A"/>
<path d="M271.961 227.689L261.329 234.273L257.429 243.369V235.41C257.429 235.41 260.317 231.998 262.682 229.508C265.047 227.018 263.353 225.289 262.682 224.437C262.011 223.584 251.834 235.41 251.834 235.41V242.232C247.092 236.399 244.898 238.4 244.17 239.458C243.442 240.515 251.834 248.429 251.834 248.429V250.84L210.137 273.264L199.164 245.973L176.751 257.742L190.135 290.138C191.058 292.38 192.452 294.396 194.223 296.051C195.994 297.706 198.1 298.96 200.398 299.729C202.697 300.498 205.134 300.764 207.544 300.508C209.954 300.252 212.281 299.48 214.367 298.246L263.433 269.238L266.696 263.792C267.829 261.915 268.496 259.793 268.641 257.606L270.335 233.101C273.314 231.236 271.961 227.689 271.961 227.689Z" fill="#FFBE9D"/>
<path d="M210.341 273.298C209.351 277.135 207.971 280.861 206.225 284.419C207.229 280.586 208.608 276.861 210.341 273.298Z" fill="#EB996E"/>
<path d="M270.335 233.101C269.707 233.425 269.061 233.713 268.402 233.966C267.649 234.322 266.978 234.829 266.428 235.455C265.879 236.08 265.463 236.812 265.207 237.604C264.357 239.894 263.322 242.111 262.114 244.234C262.78 241.895 263.632 239.614 264.661 237.411C264.993 236.48 265.52 235.631 266.207 234.921C266.796 234.373 267.478 233.934 268.22 233.624C268.876 233.291 269.599 233.112 270.335 233.101Z" fill="#EB996E"/>
<path d="M270.176 236.979C269.991 237.004 269.815 237.07 269.659 237.172C269.504 237.274 269.373 237.41 269.277 237.57C268.948 238.207 268.527 239.208 268.14 240.276C267.713 241.629 267.212 242.958 266.639 244.256C266.641 242.805 266.963 241.372 267.583 240.06C267.95 239.103 268.419 238.188 268.982 237.331C269.085 237.189 269.217 237.07 269.37 236.984C269.523 236.898 269.693 236.845 269.869 236.831C270.085 236.831 270.187 236.945 270.176 236.979Z" fill="#EB996E"/>
<path d="M170.054 253.592L174.818 269.727L205.054 256.082C203.917 252.671 198.959 237.65 189.396 213.771C186.777 207.223 182.518 201.46 177.027 197.035C171.537 192.61 165 189.672 158.046 188.504C148.153 186.855 137.385 185.57 129.095 185.673C120.866 185.749 112.911 188.648 106.562 193.884C100.212 199.12 95.8516 206.377 94.209 214.441C91.6505 227.12 96.1307 235.501 93.2425 263.246L92.3214 333.03L173.056 335.998L170.054 253.592Z" fill="#333258"/>
<path d="M96.9949 262.507C96.9949 262.507 85.7717 263.166 81.3597 254.672C81.3597 254.672 93.4471 209.984 97.6658 204.719L96.9949 262.507Z" fill="#333258"/>
<path d="M190.92 218.273C190.631 218.497 190.308 218.673 189.964 218.796C188.975 219.155 187.935 219.351 186.883 219.376C185.23 219.368 183.584 219.158 181.982 218.751C180.117 218.33 178.036 217.705 175.705 217.318C174.49 217.171 173.267 217.107 172.044 217.125C170.72 217.23 169.408 217.447 168.121 217.773C165.266 218.549 162.524 219.696 159.968 221.184C157.205 222.685 154.396 224.459 151.405 226.21C148.337 228.115 145.049 229.642 141.615 230.759C138.086 231.852 134.317 231.911 130.756 230.929C127.525 229.884 124.515 228.254 121.875 226.119C119.339 224.152 117.133 222.083 115.052 220.195C113.154 218.426 111.141 216.785 109.025 215.283C106.014 213.032 102.503 211.542 98.7915 210.939C97.4205 210.862 96.0463 210.862 94.6752 210.939C95.0106 210.803 95.3623 210.711 95.7214 210.666C96.7513 210.502 97.7962 210.453 98.837 210.518C102.67 210.963 106.326 212.38 109.458 214.635C111.642 216.109 113.717 217.739 115.666 219.513C117.781 221.378 120.01 223.402 122.489 225.289C125.037 227.308 127.931 228.849 131.028 229.838C134.389 230.743 137.938 230.676 141.262 229.644C144.602 228.553 147.804 227.076 150.803 225.244C153.77 223.527 156.602 221.753 159.422 220.252C162.074 218.745 164.915 217.598 167.871 216.841C169.222 216.517 170.6 216.312 171.987 216.227C173.269 216.24 174.549 216.339 175.819 216.522C178.23 216.977 180.288 217.659 182.118 218.137C183.663 218.582 185.254 218.849 186.86 218.933C188.239 218.925 189.609 218.703 190.92 218.273Z" fill="#01051A"/>
<path d="M170.588 273.957C169.047 273.039 167.345 272.422 165.574 272.138C163.644 271.91 161.69 272.018 159.797 272.456C157.637 272.888 155.306 273.673 152.747 274.31C148.357 275.439 143.76 275.501 139.341 274.492C135.929 273.696 134.099 272.616 134.155 272.502C134.212 272.388 136.191 273.105 139.511 273.639C143.817 274.372 148.228 274.198 152.463 273.127C154.953 272.502 157.33 271.74 159.592 271.342C161.609 270.934 163.685 270.911 165.71 271.274C167.081 271.518 168.384 272.053 169.531 272.843C170.327 273.468 170.645 273.912 170.588 273.957Z" fill="#01051A"/>
<path d="M171.407 315.621C171.407 315.621 171.1 316.133 170.338 316.849C169.238 317.855 168.006 318.708 166.677 319.385C164.682 320.42 162.476 320.981 160.229 321.022C157.487 320.947 154.784 320.345 152.269 319.248C149.62 318.213 147.198 317.054 144.912 316.406C142.892 315.788 140.777 315.542 138.67 315.678C137.262 315.762 135.889 316.15 134.644 316.815C133.757 317.304 133.348 317.702 133.269 317.622C133.189 317.543 133.541 317.065 134.406 316.485C135.638 315.592 137.079 315.028 138.59 314.848C140.808 314.589 143.056 314.763 145.208 315.359C147.76 316.152 150.265 317.086 152.713 318.157C155.084 319.194 157.622 319.799 160.206 319.942C162.305 319.951 164.38 319.505 166.29 318.634C169.644 317.122 171.293 315.45 171.407 315.621Z" fill="#01051A"/>
<g opacity="0.3">
<path opacity="0.3" d="M83.85 263.291C94.4251 265.452 105.284 263.291 116.053 262.632C122.591 262.245 129.834 261.495 134.997 265.554C139.09 268.738 140.682 274.094 141.922 279.143C146.47 298.405 147.255 315.609 148.267 335.361L95.9602 334.224L83.85 263.291Z" fill="black"/>
</g>
<path opacity="0.3" d="M97.6658 227.029L99.9286 259.641H93.0378L97.6658 227.029Z" fill="black"/>
<path d="M112.357 332.984L216.175 336.657C224.276 336.942 231.943 340.394 237.526 346.271C243.11 352.148 246.165 359.981 246.035 368.087L245.125 427H207.055L204.599 376.206L112.357 373.772V332.984Z" fill="#01051A"/>
<path d="M147.175 386.849H136.964V424.225H147.175V386.849Z" fill="#626585"/>
<path d="M51.2834 268.101V358.16C51.2864 363.83 53.5412 369.268 57.5521 373.277C61.5629 377.285 67.0016 379.537 72.6723 379.537H132.643V268.101C132.64 265.573 131.634 263.149 129.845 261.363C128.056 259.576 125.631 258.572 123.103 258.572H60.8123C58.2851 258.572 55.8614 259.576 54.0743 261.363C52.2873 263.15 51.2834 265.574 51.2834 268.101Z" fill="#626585"/>
<path d="M213.355 386.849H67.3051C67.3232 382.639 69.0083 378.607 71.9919 375.636C74.9754 372.666 79.0142 370.998 83.2246 370.998H197.56C201.764 370.998 205.796 372.668 208.769 375.641C211.741 378.613 213.411 382.645 213.411 386.849H213.355Z" fill="#626585"/>
<path d="M132.643 368.894C132.709 369.784 132.633 370.678 132.416 371.544C131.926 373.571 130.859 375.413 129.343 376.846C127.827 378.279 125.928 379.242 123.876 379.617C122.948 379.768 122.008 379.832 121.067 379.81H118.122H105H81.121L73.9004 379.719H71.9332C71.7038 379.727 71.4744 379.704 71.2509 379.651C71.4765 379.615 71.7046 379.596 71.9332 379.594L73.9004 379.537L81.121 379.435L105 379.321H121.067C121.98 379.356 122.894 379.303 123.796 379.162C125.393 378.886 126.901 378.236 128.197 377.263C130.12 375.842 131.51 373.815 132.143 371.509C132.62 369.849 132.563 368.883 132.643 368.894Z" fill="#01051A"/>
<path d="M151.019 387.156C148.046 387.456 145.056 387.554 142.07 387.452C139.08 387.554 136.086 387.456 133.109 387.156C136.087 386.863 139.08 386.764 142.07 386.86C145.056 386.764 148.045 386.863 151.019 387.156Z" fill="#01051A"/>
<path d="M195.457 380.333C195.315 379.968 195.224 379.586 195.184 379.196C195.036 378.457 194.843 377.388 194.615 376.001C194.149 373.215 193.478 369.178 192.75 364.221C192.341 361.742 192.011 358.979 191.465 356.102C191.318 355.385 191.181 354.658 191.033 353.907C190.885 353.157 190.601 352.452 190.385 351.701C190.271 351.337 190.169 350.951 190.055 350.564C189.942 350.177 189.771 349.825 189.623 349.427C189.316 348.676 189.043 347.915 188.714 347.153C187.27 344.039 185.444 341.117 183.278 338.454C180.913 335.625 178.161 333.145 175.102 331.085C172.058 329.002 168.714 327.391 165.187 326.31C161.913 325.27 158.511 324.689 155.078 324.581C148.46 324.433 142.433 324.468 137.408 324.399C132.382 324.331 128.311 324.274 125.491 324.206C124.081 324.206 122.989 324.138 122.239 324.092C121.856 324.104 121.474 324.066 121.101 323.979C121.473 323.883 121.855 323.841 122.239 323.853L125.491 323.74C128.299 323.672 132.382 323.615 137.408 323.558C142.433 323.501 148.426 323.399 155.112 323.49C158.652 323.565 162.163 324.143 165.539 325.207C169.185 326.298 172.638 327.951 175.773 330.108C178.932 332.222 181.767 334.784 184.188 337.715C186.404 340.468 188.265 343.49 189.726 346.709C190.055 347.482 190.328 348.278 190.635 349.04C190.772 349.427 190.92 349.802 191.067 350.177C191.215 350.553 191.283 350.951 191.397 351.314C191.613 352.088 191.818 352.838 192.023 353.589C192.227 354.339 192.307 355.101 192.443 355.863C192.955 358.808 193.228 361.548 193.58 364.027C194.229 369.019 194.717 373.067 195.07 375.865C195.229 377.263 195.354 378.355 195.422 379.094C195.496 379.503 195.508 379.921 195.457 380.333Z" fill="#626585"/>
<path d="M11.1549 271.353C11.1549 271.353 9.31281 276.504 12.8378 280.234H20.1721C20.1721 280.234 19.524 271.91 11.1549 271.353Z" fill="#FC9256"/>
<path opacity="0.4" d="M11.1549 271.353C11.1549 271.353 9.31281 276.504 12.8378 280.234H20.1721C20.1721 280.234 19.524 271.91 11.1549 271.353Z" fill="black"/>
<path d="M23.6517 260.744C23.3447 260.38 17.0679 270.205 20.5929 280.234H27.5065C27.5065 280.234 30.2128 268.567 23.6517 260.744Z" fill="#FC9256"/>
<path d="M35.8983 271.353C33.6383 271.505 31.5187 272.504 29.963 274.15C28.4073 275.796 27.53 277.969 27.5065 280.234H34.4087C34.4087 280.234 37.4334 275.981 35.8983 271.353Z" fill="#FC9256"/>
<path d="M12.2692 279.848C9.88483 281.559 8.03549 283.913 6.93638 286.634C5.83727 289.356 5.53358 292.334 6.06065 295.221C7.83453 305.455 18.637 309.867 18.637 309.867H30.6107C30.6107 309.867 42.8004 304.489 42.5048 293.425C42.2091 282.361 34.9544 280.007 34.9544 280.007L12.2692 279.848Z" fill="#626585"/>
<path d="M42.4593 292.185C42.1882 291.728 41.8553 291.311 41.4701 290.946C40.9133 290.501 40.2737 290.172 39.5885 289.977C38.9034 289.781 38.1863 289.724 37.4788 289.808C35.3612 290.21 33.3602 291.08 31.6228 292.356C30.5191 293.061 29.3501 293.659 28.1318 294.141C26.7877 294.652 25.3319 294.797 23.9132 294.562C20.9908 294.061 18.6598 292.492 16.4765 291.446C14.6189 290.362 12.4836 289.848 10.3362 289.968C8.90055 290.116 7.57136 290.793 6.6065 291.867C6.28408 292.29 6.0095 292.747 5.78778 293.231C5.79538 293.088 5.82215 292.946 5.86738 292.81C5.98522 292.402 6.1738 292.017 6.42456 291.673C7.37804 290.477 8.76157 289.702 10.2793 289.513C12.537 289.315 14.8008 289.819 16.7608 290.957C19.035 292.003 21.3092 293.515 24.0497 293.97C25.3711 294.197 26.7293 294.068 27.984 293.595C29.173 293.132 30.3152 292.557 31.3953 291.878C33.2087 290.591 35.2943 289.739 37.4902 289.388C38.2477 289.314 39.0122 289.399 39.7348 289.638C40.4574 289.877 41.1221 290.264 41.6861 290.775C41.9795 291.063 42.2184 291.402 42.3911 291.776C42.448 292.037 42.4821 292.174 42.4593 292.185Z" fill="#01051A"/>
<path d="M42.63 294.857C42.3572 294.408 42.0286 293.996 41.6521 293.629C41.1037 293.182 40.4703 292.85 39.7901 292.655C39.1099 292.46 38.3971 292.404 37.6949 292.492C35.6006 292.895 33.623 293.761 31.9071 295.028C30.8321 295.738 29.6894 296.34 28.4958 296.825C27.1639 297.337 25.7186 297.483 24.3112 297.245C21.4116 296.745 19.1033 295.176 16.9428 294.13C15.1137 293.047 13.0042 292.533 10.8821 292.651C9.45569 292.807 8.13833 293.488 7.18648 294.562C6.86894 294.98 6.60177 295.434 6.3905 295.915C6.3905 295.915 6.3905 295.767 6.45873 295.494C6.58175 295.107 6.76602 294.743 7.00454 294.414C7.94272 293.221 9.30954 292.442 10.8138 292.242C13.0335 292.04 15.2613 292.529 17.193 293.641C19.399 294.687 21.7414 296.199 24.4022 296.654C25.7087 296.881 27.0522 296.751 28.2911 296.279C29.4625 295.817 30.586 295.242 31.6455 294.562C33.4376 293.274 35.5049 292.422 37.6836 292.071C38.4249 292.005 39.1719 292.094 39.8768 292.333C40.5818 292.572 41.229 292.955 41.7771 293.459C42.0654 293.745 42.3003 294.08 42.4708 294.448C42.5461 294.575 42.5999 294.713 42.63 294.857Z" fill="#01051A"/>
<path d="M11.553 294.789C11.553 294.721 11.8714 294.516 12.2921 294.857C12.4192 294.967 12.5101 295.113 12.5527 295.275C12.5954 295.438 12.5877 295.609 12.5309 295.767C12.4609 295.962 12.3297 296.128 12.1569 296.242C11.9842 296.355 11.7792 296.41 11.5728 296.397C11.3665 296.384 11.1698 296.305 11.0124 296.171C10.8551 296.037 10.7455 295.855 10.7001 295.653C10.6602 295.497 10.6634 295.334 10.7095 295.179C10.7555 295.025 10.8427 294.886 10.9617 294.778C11.371 294.437 11.7235 294.596 11.7008 294.664C11.678 294.732 11.4506 294.789 11.2801 295.062C11.2432 295.13 11.224 295.206 11.224 295.284C11.224 295.361 11.2432 295.437 11.2801 295.505C11.3134 295.585 11.3663 295.655 11.4339 295.709C11.5015 295.762 11.5816 295.798 11.6667 295.812C11.7507 295.809 11.8324 295.785 11.9041 295.741C11.9758 295.697 12.035 295.636 12.076 295.562C12.1141 295.499 12.1342 295.426 12.1342 295.352C12.1342 295.278 12.1141 295.205 12.076 295.142C11.8259 294.88 11.5643 294.869 11.553 294.789Z" fill="#01051A"/>
<path d="M25.1186 290.468C25.1186 290.4 25.4369 290.184 25.869 290.536C25.9917 290.649 26.0786 290.795 26.119 290.957C26.1594 291.119 26.1516 291.289 26.0965 291.446C26.0247 291.639 25.8937 291.805 25.7222 291.919C25.5506 292.034 25.3473 292.091 25.1413 292.083C24.9358 292.063 24.7413 291.981 24.5845 291.846C24.4278 291.712 24.3164 291.532 24.2657 291.332C24.2245 291.175 24.2282 291.01 24.2765 290.855C24.3247 290.7 24.4156 290.562 24.5386 290.457C24.948 290.116 25.3005 290.275 25.2664 290.343C25.2323 290.411 25.0162 290.468 24.8457 290.741C24.8116 290.81 24.7938 290.886 24.7938 290.963C24.7938 291.04 24.8116 291.115 24.8457 291.184C24.879 291.264 24.9319 291.334 24.9995 291.388C25.0671 291.441 25.1472 291.477 25.2323 291.491C25.3165 291.49 25.3987 291.465 25.4706 291.421C25.5425 291.378 25.6015 291.315 25.6416 291.241C25.6809 291.178 25.7018 291.105 25.7018 291.031C25.7018 290.957 25.6809 290.884 25.6416 290.821C25.3915 290.559 25.1299 290.548 25.1186 290.468Z" fill="#01051A"/>
<path d="M38.2748 294.982C38.2748 294.914 38.5932 294.71 39.0253 295.051C39.148 295.164 39.2348 295.31 39.2753 295.471C39.3157 295.633 39.3078 295.803 39.2527 295.96C39.181 296.154 39.05 296.319 38.8784 296.434C38.7069 296.548 38.5036 296.605 38.2976 296.597C38.0935 296.578 37.9001 296.497 37.7435 296.365C37.5869 296.233 37.4747 296.056 37.422 295.858C37.3812 295.699 37.385 295.533 37.4332 295.376C37.4814 295.219 37.572 295.079 37.6949 294.971C38.1043 294.63 38.4568 294.789 38.4227 294.857C38.3885 294.926 38.1725 294.994 38.0019 295.255C37.9541 295.323 37.9245 295.401 37.9161 295.483C37.9077 295.566 37.9208 295.648 37.954 295.724C37.9872 295.8 38.0395 295.865 38.1057 295.915C38.1719 295.964 38.2497 295.996 38.3317 296.006C38.4159 296.004 38.4982 295.98 38.57 295.936C38.6419 295.892 38.7009 295.83 38.741 295.756C38.7803 295.693 38.8012 295.62 38.8012 295.545C38.8012 295.471 38.7803 295.398 38.741 295.335C38.5477 295.085 38.2976 295.062 38.2748 294.982Z" fill="#01051A"/>
<path d="M384.409 269.409L388.309 309.867H408.026L412.745 269.409H384.409Z" fill="#626585"/>
<path d="M384.409 264.178C383.195 265.694 382.541 267.581 382.555 269.523H414.599C414.755 268.548 414.667 267.55 414.344 266.617C414.02 265.685 413.471 264.847 412.745 264.178H384.409Z" fill="#01051A"/>
<path d="M388.059 260.471L386.979 264.474L411.165 264.656L409.562 260.426L388.059 260.471Z" fill="#01051A"/>
<path d="M384.045 279.541C384.045 279.916 386.319 299.94 386.319 299.94H410.414L412.689 279.575L384.045 279.541Z" fill="#FC9256"/>
</svg>
