<svg width="73" height="73" viewBox="0 0 73 73" fill="none" xmlns="http://www.w3.org/2000/svg">
<path d="M73 0H0V73H73V0Z" fill="white" fill-opacity="0.01"/>
<path d="M51.7084 16.7292H9.12504C7.44517 16.7292 6.08337 18.091 6.08337 19.7709V53.2292C6.08337 54.9091 7.44517 56.2709 9.12504 56.2709H51.7084C53.3882 56.2709 54.75 54.9091 54.75 53.2292V19.7709C54.75 18.091 53.3882 16.7292 51.7084 16.7292Z" fill="white" stroke="#FC9256" stroke-width="2"/>
<path d="M30.4166 45.625C35.4562 45.625 39.5416 41.5396 39.5416 36.5C39.5416 31.4604 35.4562 27.375 30.4166 27.375C25.377 27.375 21.2916 31.4604 21.2916 36.5C21.2916 41.5396 25.377 45.625 30.4166 45.625Z" fill="white" stroke="#FC9256" stroke-width="2" stroke-linecap="round" stroke-linejoin="round"/>
<path d="M54.75 44.1042L66.9167 50.1875V22.8125L54.75 28.8958" fill="white"/>
<path d="M54.75 44.1042L66.9167 50.1875V22.8125L54.75 28.8958" stroke="#FC9256" stroke-width="2" stroke-linecap="round" stroke-linejoin="round"/>
</svg>
