<svg width="89" height="86" viewBox="0 0 89 86" fill="none" xmlns="http://www.w3.org/2000/svg">
<path d="M75.7045 14.7295H13.6422C11.6259 14.7295 9.99146 16.323 9.99146 18.2887V53.8809C9.99146 55.8466 11.6259 57.4401 13.6422 57.4401H75.7045C77.7208 57.4401 79.3553 55.8466 79.3553 53.8809V18.2887C79.3553 16.323 77.7208 14.7295 75.7045 14.7295Z" fill="white" stroke="#FC9256" stroke-width="2"/>
<path d="M36.7451 37.2666C36.5869 38.6201 36.0859 39.666 35.2422 40.4043C34.4043 41.1367 33.2881 41.5029 31.8935 41.5029C30.3818 41.5029 29.1689 40.9609 28.2548 39.877C27.3466 38.793 26.8925 37.3428 26.8925 35.5264V34.2959C26.8925 33.1064 27.1035 32.0605 27.5254 31.1582C27.9531 30.2559 28.5566 29.5645 29.3359 29.084C30.1152 28.5977 31.0175 28.3545 32.0429 28.3545C33.4023 28.3545 34.4922 28.7354 35.3125 29.4971C36.1328 30.2529 36.6103 31.3018 36.7451 32.6436H35.0488C34.9023 31.624 34.583 30.8857 34.0908 30.4287C33.6045 29.9717 32.9218 29.7432 32.0429 29.7432C30.9648 29.7432 30.1181 30.1416 29.5029 30.9385C28.8935 31.7354 28.5888 32.8691 28.5888 34.3398V35.5791C28.5888 36.9678 28.8789 38.0723 29.459 38.8926C30.039 39.7129 30.8506 40.123 31.8935 40.123C32.831 40.123 33.5488 39.9121 34.0468 39.4902C34.5507 39.0625 34.8847 38.3213 35.0488 37.2666H36.7451ZM43.75 36.1504H40.7441V41.3271H39.0478V28.5303H43.2841C44.7256 28.5303 45.833 28.8584 46.6064 29.5146C47.3857 30.1709 47.7754 31.126 47.7754 32.3799C47.7754 33.1768 47.5586 33.8711 47.125 34.4629C46.6972 35.0547 46.0996 35.4971 45.332 35.79L48.3379 41.2217V41.3271H46.5273L43.75 36.1504ZM40.7441 34.7705H43.3369C44.1748 34.7705 44.8398 34.5537 45.332 34.1201C45.83 33.6865 46.0791 33.1064 46.0791 32.3799C46.0791 31.5889 45.8418 30.9824 45.3672 30.5605C44.8984 30.1387 44.2187 29.9248 43.3281 29.9189H40.7441V34.7705ZM52.3281 28.5303L56.5117 38.9717L60.6953 28.5303H62.8838V41.3271H61.1963V36.3438L61.3545 30.9648L57.1533 41.3271H55.8613L51.6689 30.9912L51.8359 36.3438V41.3271H50.1484V28.5303H52.3281Z" fill="#FC9256"/>
</svg>
