<svg width="76" height="76" viewBox="0 0 76 76" fill="none" xmlns="http://www.w3.org/2000/svg">
<path d="M61.75 9.5H14.25C11.6267 9.5 9.5 11.6267 9.5 14.25V61.75C9.5 64.3734 11.6267 66.5 14.25 66.5H61.75C64.3734 66.5 66.5 64.3734 66.5 61.75V14.25C66.5 11.6267 64.3734 9.5 61.75 9.5Z" fill="white" stroke="#FC9256" stroke-width="1.625"/>
<path d="M44.3333 20.5833L34.0416 37.9999L31.4687 42.3541L30.1823 44.5312" stroke="#FC9256" stroke-width="1.625" stroke-linecap="round" stroke-linejoin="round"/>
<path d="M23.75 55.4166L25.0365 53.2395" stroke="#FC9256" stroke-width="1.625" stroke-linecap="round" stroke-linejoin="round"/>
<path d="M19 45.9167H36.4167" stroke="#FC9256" stroke-width="1.625" stroke-linecap="round" stroke-linejoin="round"/>
<path d="M47.5 45.9167H57" stroke="#FC9256" stroke-width="1.625" stroke-linecap="round" stroke-linejoin="round"/>
<path d="M30.0834 20.5833L35.625 29.2916L37.0105 31.4687" stroke="#FC9256" stroke-width="1.625" stroke-linecap="round" stroke-linejoin="round"/>
<path d="M52.25 55.4166L46.7084 46.7083L43.9375 42.3541L42.5521 40.177" stroke="#FC9256" stroke-width="1.625" stroke-linecap="round" stroke-linejoin="round"/>
</svg>
